<?xml version="1.0" encoding="utf-8"?>
<!-- Generator: Adobe Illustrator 23.0.1, SVG Export Plug-In . SVG Version: 6.00 Build 0)  -->
<svg version="1.1" id="acustic" xmlns="http://www.w3.org/2000/svg" xmlns:xlink="http://www.w3.org/1999/xlink" x="0px" y="0px"
	 viewBox="0 0 76.7 77.2" style="enable-background:new 0 0 76.7 77.2;" xml:space="preserve">
<style type="text/css">
	.st0{fill:#6A8A82;}
	.st1{fill:#661642;}
</style>
<path id="body_x5F_acustic" class="st0" d="M9.4,4.1l1.5-1.5l1.4,1.4l-1.7,1.7l0.9,0.9L13.2,5l1.5,1.5l-1.5,1.5
	c0,0,27.1,28.1,28.2,27.2c7.8-6.5,10.9,0.3,12.2,2.3c4.2,6.6,7.6,5.2,10.7,6.3c17.2,6.1,13.9,18.1,5.5,26
	c-21.1,19.8-26.9-5.7-27-6.6c-0.1-0.9-0.2-6.4-4.8-8.5c-12.8-4.9-1.7-14.4-1.7-14.4L8.8,13.3l-2.3,2.3l-1.5-1.5l2-2l-1.2-1.2
	l-1.8,1.8l-1.4-1.4l1.5-1.5L2.9,8.5l-1.6,1.6L0,8.8L1.8,7L0,5.3L5.3,0l2.1,2.1l1.3-1.3l1.1,1.1L8.3,3.3L9.4,4.1z"/>
<path id="hole" class="st1" d="M45.6,51.6c4.6,4.6,11.2-1.1,6.1-6.1C46.5,40.2,40.6,46.5,45.6,51.6z"/>
<path id="bridge" class="st1" d="M54.2,63.2l10.7-10.7l1.4,1.4l-1.6,3.3c0,0-5.5,5.5-5.9,5.9s-3.2,1.6-3.2,1.6L54.2,63.2z"/>
</svg>
