<?xml version="1.0" encoding="utf-8"?>
<!-- Generator: Adobe Illustrator 23.0.1, SVG Export Plug-In . SVG Version: 6.00 Build 0)  -->
<svg version="1.1" id="dj" xmlns="http://www.w3.org/2000/svg" xmlns:xlink="http://www.w3.org/1999/xlink" x="0px" y="0px"
	 viewBox="0 0 82.5 93.6" style="enable-background:new 0 0 82.5 93.6;" xml:space="preserve">
<style type="text/css">
	.st0{fill:#6A8A82;}
	.st1{fill:#660D3B;}
</style>
<circle id="big_circle" class="st0" cx="41.3" cy="52.3" r="41.3"/>
<circle id="small_circle" class="st1" cx="41.1" cy="51.6" r="12.2"/>
<path class="st1" d="M45.8,1.8c0,0,0.6-2.2,1.3-1.7s19.5,23.3,19.7,24s0.9,11.3,1.3,11.7c0.5,0.5,2.1-0.5,2.3,0.7
	c0.3,1.1,0.1,21.5,0,22s-6.3,0.3-6.9,0c0.1-1.5-0.2-21.7,0.2-22.2c0.4-0.6,0.2-0.1,1.9-0.7c0.3-1.4-0.5-10.5-0.5-10.5L45.8,1.8z"/>
<path class="st1" d="M11.4,41.8c0.2-0.8,5,2,5.1,2.5c0.1,0.4-5.3,20.8,14,29.5c-0.7,2-1.6,5-1.6,5S3.4,72.4,11.4,41.8z"/>
<path class="st1" d="M32.9,74.9c0,0,3.1,0.6,3.3,1c0.3,0.4-0.6,4.6-0.7,4.9c-0.1,0.3-3.8-0.7-3.8-1S32.4,75.5,32.9,74.9z"/>
</svg>
