<?xml version="1.0" encoding="utf-8"?>
<!-- Generator: Adobe Illustrator 23.0.1, SVG Export Plug-In . SVG Version: 6.00 Build 0)  -->
<svg version="1.1" id="drms" xmlns="http://www.w3.org/2000/svg" xmlns:xlink="http://www.w3.org/1999/xlink" x="0px" y="0px"
	 viewBox="0 0 86.4 64.4" style="enable-background:new 0 0 86.4 64.4;" xml:space="preserve">
<style type="text/css">
	.st0{fill:#661642;}
	.st1{fill:#6A8A82;}
	.st2{fill:none;stroke:#6A8A82;stroke-linecap:round;stroke-miterlimit:10;}
	.st3{fill:none;stroke:#6A8A82;stroke-linecap:round;stroke-linejoin:round;stroke-miterlimit:10;}
</style>
<path class="st0" d="M58.3,48.2c0,0-0.1-3.5-0.8-6.1c-3.1-10.5-22-12.7-26.5,0c-1.2,3.5-0.7,5.5-0.7,7.2
	C39.1,34.7,51.4,38.7,58.3,48.2z"/>
<path class="st0" d="M15.4,35.9L15.3,47c2.3,2.7,12.5,1.2,13,0.4c0.6-0.8,1.2-8.6,1-10.3C26.9,36.8,16.3,38.7,15.4,35.9z"/>
<path class="st0" d="M74.4,41.1c0.3-1.3,0.4,4.7,0,5.5s-10.8,2.5-13.6,0.7c-0.6-2.2-0.4-3.1-0.6-5.2C62.7,43.4,73.7,43.5,74.4,41.1z
	"/>
<path class="st0" d="M68.5,29.4c-0.2-2.3,17.6-1.9,17.6-0.1C86.1,31.9,68.7,32.4,68.5,29.4z"/>
<path class="st0" d="M6,2c1.1-5.4,29.8,1.6,29.8,5.8C35.8,12.5,5.1,7,6,2z"/>
<path class="st0" d="M50.5,27.8c-0.8-2.4-1.9-6.3-2.4-8.2c-0.5-1.8,8.8-5.5,13.1-4.4c1.4,3.1,2.8,8,2.7,8.8
	C63.8,25,50.5,27.8,50.5,27.8z"/>
<path class="st0" d="M36.3,32.2c1.3-4.4-14.4-8.4-15.2-4.8c1.4-7,4.4-13.3,5.3-13.7c0.9-0.4,11.9,0.6,14.1,4.6
	C39.2,22.4,36.3,32.2,36.3,32.2z"/>
<path class="st1" d="M43.8,38.7c20-0.5,18.4,26.2,0,25.6C28.5,65.9,23,39.3,43.8,38.7z"/>
<path class="st2" d="M30.9,42.1c3.7-11.9,22.6-12.2,26.5,0"/>
<path class="st1" d="M60.3,42.1c0.4,2.2,13.3,1.4,14.1-1.1C75.2,38.6,60,40.1,60.3,42.1z"/>
<path class="st1" d="M50.4,27.5c0.8,3.3,13.5,2.1,13.6-3.3C63.9,20.9,49.9,25.5,50.4,27.5z"/>
<line class="st2" x1="67.3" y1="48.2" x2="67.3" y2="59.3"/>
<line class="st3" x1="67.5" y1="54.4" x2="72.8" y2="60.4"/>
<line class="st3" x1="67.3" y1="54.9" x2="62.7" y2="60.4"/>
<line class="st3" x1="77.4" y1="52.2" x2="68.5" y2="62.7"/>
<line class="st3" x1="77.4" y1="52.2" x2="85.4" y2="62.3"/>
<line class="st3" x1="77.6" y1="60" x2="77.4" y2="25.5"/>
<line class="st3" x1="21.7" y1="48.2" x2="21.7" y2="58.8"/>
<line class="st3" x1="21.7" y1="54.4" x2="26.4" y2="60"/>
<line class="st3" x1="21.7" y1="54.4" x2="16.3" y2="60.4"/>
<path class="st1" d="M15.4,35.9c-0.8,2.8,13.6,3.3,14.1,1.1C30.2,34.3,16.1,33.7,15.4,35.9z"/>
<path class="st1" d="M21.1,27.8c0.4,2.9,14.6,7.2,15.6,3.8C37.8,28.1,20.4,23.3,21.1,27.8z"/>
<polyline class="st2" points="20.6,5.4 20.6,8 8.5,27.8 "/>
<line class="st2" x1="11.1" y1="21.7" x2="11.7" y2="59.3"/>
<line class="st2" x1="11.4" y1="49.3" x2="21.1" y2="62.3"/>
<line class="st2" x1="11.7" y1="50.6" x2="1" y2="62.7"/>
<path class="st1" d="M41.5,36.4c-0.1,0.9,4.6,1.1,4.9,0S41.7,34.7,41.5,36.4z"/>
<polyline class="st2" points="43.9,36.3 44.2,27.8 40.2,26.8 40.2,22.4 36.8,21.7 "/>
<polyline class="st2" points="44.2,27.8 48.1,26.8 48.1,23 52,21.7 "/>
</svg>
