<svg id="Layer_1" data-name="Layer 1" xmlns="http://www.w3.org/2000/svg" viewBox="0 0 198.1 405.7"><defs><style>.cls-1{fill:#a90e05;}.cls-2{fill:#f2df53;}.cls-3{fill:#ffe5cf;}.cls-4{fill:#a21001;}.cls-5{fill:#800b02;}.cls-6{fill:#028476;}.cls-7{fill:#b90e00;}.cls-8{fill:#fff;}.cls-9{fill:#292c2b;}.cls-10{fill:#be1303;}.cls-11{fill:#048274;}.cls-12{fill:#463936;}.cls-13{fill:#12b6a7;}.cls-14{fill:#770b01;}</style></defs><title>bass</title><path id="suit" class="cls-1" d="M49.2,111.5s-27,23.1-19.8,89.3c0,0-2.4,6.3,14.5,0S127,163.6,127,163.6V141.9L48.8,169.4l.4-28.5L53.1,165s19.3,135.3,14,165.2-6.8,5.3-5.6,13.5-25.3,57.5-25.3,57.5l41.4,2.4,22.8-72.4-3.5-48.3s16.3-9.7,21-.5l22.6,44.4s-3.4-4.3,0,14,12.1,62.8,12.1,62.8l33.8-3.4s-21.7-84-23.2-85.4S140,275.6,140,275.6l-15.9-98.5,21.2-17.8s25.6,11.5,30.9-1,8.3-49.7,8.3-49.7l-21.3,7.7-10.1,19.3-45.8-24.1-11.8-6.3-1.4,43.4-12,5.3L69,129.3,58.5,113.4Z" transform="translate(-5.2 -7)"/><path id="hair" class="cls-2" d="M16.9,73.8a47.6,47.6,0,0,0-2,35.7c6.8,19.8.9,28.5-.3,31.4s.6,15.5.6,15.5,1.8-5.4,3.4-12.6A95.7,95.7,0,0,0,20.9,125c-.2-14,2.6-42.3,2.6-42.3s1.3,43.2,0,49.5,4-41.2,4-41.2l4.3,24.1,3.4-15.3s4.8,11.2,0,32.4S48,108.6,48,108.6" transform="translate(-5.2 -7)"/><path id="face" class="cls-3" d="M23.5,82.7s4.2,19.1,35,30.7,44.3-13.5,48.7-35.3,3.3-8.5,3.3-8.5h0" transform="translate(-5.2 -7)"/><path id="hat" class="cls-4" d="M33.3,30.8s-50.2-13.5-16.4,43,121.7-3.4,96.6-37.2c0,0,3.8-14.5-38.2-10.2,0,0-15-38.3-24.6-.8C50.7,25.6,38.1,2.8,33.3,30.8Z" transform="translate(-5.2 -7)"/><path id="hightlight" class="cls-5" d="M85,48.7c.6-6.6-9.7-22.3-9.7-22.3,24.6.9,21.6,34.3,21.6,34.3s-4.7,48.8-51.5,22S33.3,30.8,33.3,30.8l1.4,15.4S80.1,98.9,85,48.7Z" transform="translate(-5.2 -7)"/><path id="hightlight-2" data-name="hightlight" class="cls-6" d="M34.7,46.2,31.8,58.3s57,60.9,53.2-9.6C85,48.7,72.4,82,34.7,46.2Z" transform="translate(-5.2 -7)"/><path id="hightlight-3" data-name="hightlight" class="cls-7" d="M61.5,12c-2.7,4,3.2,34.2,3.2,34.2s6.7,8.3,6.7-2.9,3.9-16.9,3.9-16.9S65.2,6.6,61.5,12Z" transform="translate(-5.2 -7)"/><path class="cls-4" d="M66.6,110.5s13.9,4.3,18.6-4.9" transform="translate(-5.2 -7)"/><path id="white_shirt" data-name="white shirt" class="cls-8" d="M82.1,153.9l12-5.3.7-21.2s-19.6-15.9-25.9,1.8" transform="translate(-5.2 -7)"/><path id="buffe" class="cls-9" d="M72.9,116.3s-24.2-2.7-23.1,0,11.6,20.4,11.6,20.4l6.2-7.5,5.3-6.2s7.8,10.5,13.8-1l11.4,5.4.8-22.2-15,11.1Z" transform="translate(-5.2 -7)"/><polygon id="shoe" class="cls-9" points="33.9 393.8 25.1 405.7 82.5 405.7 69 393.8 33.9 393.8"/><polygon id="shoe-2" data-name="shoe" class="cls-9" points="153.5 393.8 151.5 405.7 198.1 405.7 179.5 393.8 153.5 393.8"/><polygon id="hightlight-4" data-name="hightlight" class="cls-10" points="110.5 143.5 110.5 151.3 42.7 178.3 110.5 143.5"/><path id="hightlight-5" data-name="hightlight" class="cls-10" d="M173.6,123l-7.4,30.9s13.2,12.2,10,4.4.5-29.9.5-29.9Z" transform="translate(-5.2 -7)"/><path id="hightlight-6" data-name="hightlight" class="cls-10" d="M47.9,134.2S34.7,147,37.1,158.8,47.9,134.2,47.9,134.2Z" transform="translate(-5.2 -7)"/><polygon id="hightlight-7" data-name="hightlight" class="cls-10" points="105.5 109.3 129.6 119 129.6 125.8 105.5 109.3"/><path id="hightlight-8" data-name="hightlight" class="cls-10" d="M138.7,289.9l15.7,31.4s2.1,6.5,5.4,0S138.7,289.9,138.7,289.9Z" transform="translate(-5.2 -7)"/><path id="hightlight-9" data-name="hightlight" class="cls-10" d="M160.2,334.5l11.3,45.2S172.8,345.8,160.2,334.5Z" transform="translate(-5.2 -7)"/><path id="hightlight-10" data-name="hightlight" class="cls-10" d="M88.7,286.4l6.8,42.7S96,289.4,88.7,286.4Z" transform="translate(-5.2 -7)"/><path id="hightlight-11" data-name="hightlight" class="cls-10" d="M91.1,339,71,383.6S93.6,356.6,91.1,339Z" transform="translate(-5.2 -7)"/><path id="bass" class="cls-11" d="M166.2,64.5l-31.4,72.2-12.1,31.2-34,10s-1.5,16.2,0,21.1S32,230,68.9,267.3s72.3,8.8,76.7,0-5.4-43.7-3.4-46.2S162.8,204,162.8,204s7.4-18.7-10.3-15.8-17.7,5.4-13.8-7.8,24.5-64.1,24.5-64.1l13.5-45.9s10.2,5.7,9.7-24.2,0-19.8,0-19.8,21.6-5.8,9.3-17.2-29.5,25.4-29.5,25.4S155.7,58.5,166.2,64.5Z" transform="translate(-5.2 -7)"/><polygon class="cls-12" points="161.3 56.7 171.8 62.6 129.8 184.1 112.9 177.5 161.3 56.7"/><path id="right_hand" data-name="right hand" class="cls-3" d="M169.1,114.2s10.9,7.2,10.9-9-8.4-23-13.8-22.5-7.2,7.8-6,8.1,1.1,2.2-.4,4.2-2.9.7-2.9,4.2-1.5,4.5,0,6l1.5,1.6a13.9,13.9,0,0,0,0,4.7l.5,1.6Z" transform="translate(-5.2 -7)"/><path id="left_hand" data-name="left hand" class="cls-3" d="M127,141.9s9.7-9.6,15.7-9.1,3.4,4.6,3.4,4.6a5.4,5.4,0,0,0,.5,4.5c1.5,2.2,3.7,6,2.8,5.8s0,2.7,0,2.7L127,163.6Z" transform="translate(-5.2 -7)"/><path id="bass-2" data-name="bass" class="cls-12" d="M101.9,221.5s-16.1-51.4,16.2-37S142,197.2,142,197.2s23.2-4.2,11.6,4.5-14.9,13.4-14.9,13.4,1.2,10.6-.4,13.2S105.1,235.4,101.9,221.5Z" transform="translate(-5.2 -7)"/><path id="bass-3" data-name="bass" class="cls-13" d="M180,32.8s7.4,20.8-3.1,25.8,0,11,0,11S191.1,40.7,180,32.8Z" transform="translate(-5.2 -7)"/><path id="bass-4" data-name="bass" class="cls-13" d="M192.1,15.4s-8.9-7.4-7.9-2.1S192.1,15.4,192.1,15.4Z" transform="translate(-5.2 -7)"/><path id="bass-5" data-name="bass" class="cls-13" d="M138.3,243.6s-2.3,27.9-42.8,31.1,25.2,10.5,31.9,5.3S158.4,248.9,138.3,243.6Z" transform="translate(-5.2 -7)"/><path id="bass-6" data-name="bass" class="cls-13" d="M85.2,217.2s1.9,3.7-2.8,7.4-15.3,11.1-13.5,24.3-9.9-12.2-.8-21.1S85.2,217.2,85.2,217.2Z" transform="translate(-5.2 -7)"/><polygon class="cls-14" points="53.3 153.9 61.9 149.4 42.8 108.1 69.5 153.9 53.3 160.9 53.3 153.9"/><polygon class="cls-14" points="89.6 120.4 97.7 139.5 89 141.6 89.6 120.4"/><polygon class="cls-14" points="105.5 109.3 129.6 125.8 121.8 134.9 110.5 135 105.5 109.3"/></svg>