<?xml version="1.0" encoding="utf-8"?>
<!-- Generator: Adobe Illustrator 23.0.1, SVG Export Plug-In . SVG Version: 6.00 Build 0)  -->
<svg version="1.1" id="guitar" xmlns="http://www.w3.org/2000/svg" xmlns:xlink="http://www.w3.org/1999/xlink" x="0px" y="0px"
	 viewBox="0 0 90 98.1" style="enable-background:new 0 0 90 98.1;" xml:space="preserve">
<style type="text/css">
	.st0{fill:#6A8A82;}
	.st1{fill:#661642;}
</style>
<path id="body" class="st0" d="M10,90.1l9.5,6.5c0,0,11.7,7.2,16.1-8.8c2-7.2,2-6.7,2-7.2s2.2-7.1,10.1-10.2
	c1.8-0.7,3.9-2.8,3.6-6.6c-0.3-3.8-3.5-0.8-4.2,0s-4.6,2.2-7.7-2.7c-1.3-2.1,34.1-43.5,34.1-43.5s3.4,0.7,4.2,0
	c0.8-0.7,4.4-6.5,5.3-8.1s2.1-2.5,3.5-2.2C88,7.4,90,5.4,90,3.2s-3.5-3.5-4.9-3.1s-3.2,2.1-3.2,2.1L80,1.1l-1.4,1.7L80,4.2l-1.2,1.2
	l-1.6-1.6l-1.5,1.5l1.1,1.1l-1.5,1.5l-2-2L72,7.2l1.5,1.5l-1.1,1.1l-2-2l-1.8,1.8l1.8,1.8c0,0-1.6,1.3-2.2,2.9
	c-0.6,1.5-31.4,37.6-31.4,37.6s-8.4-2.9-0.4-11.4c2.5-2.7-5.3-3.4-8.7,1.4s-5.1,10.2-5.8,10.9s-2.1,4.5-6.9,6.7S1.3,67.5,0.3,72.5
	C-0.7,77.6,0.4,83.6,10,90.1z"/>
<path id="centre" class="st1" d="M36.4,61.3c0,0-3.8-2.7-3.9-3.5s2.7-4.1,1.9-4.7c-0.8-0.6-3-0.8-3.7,0.7s-4.8,7.1-5.9,7.5
	S10.6,66.6,16.1,73c5.5,6.3,12.3,6.7,12.3,18c1.9,2.8,4.3,1.7,7.3-6.8c1-2.7-1.1-9.1,9.2-14.3c5.4-2.7,5.8-5.8,5.5-6
	c-1.7-1.3-2.2,0.4-4.3,1.5C44,66.3,38.8,63.1,36.4,61.3z"/>
</svg>
