<?xml version="1.0" encoding="utf-8"?>
<!-- Generator: Adobe Illustrator 23.0.1, SVG Export Plug-In . SVG Version: 6.00 Build 0)  -->
<svg version="1.1" id="headphones" xmlns="http://www.w3.org/2000/svg" xmlns:xlink="http://www.w3.org/1999/xlink" x="0px" y="0px"
	 viewBox="0 0 84.2 77.5" style="enable-background:new 0 0 84.2 77.5;" xml:space="preserve">
<style type="text/css">
	.st0{fill:#660D3B;}
	.st1{fill:#6A8A82;}
</style>
<path id="right" class="st0" d="M71,74.9V50c0-1.4-1.1-2.6-2.6-2.6h-8.5c-1.4,0-2.6,1.1-2.6,2.6v25c0,1.4,1.2,2.6,2.6,2.6l8.5-0.1
	C69.9,77.4,71,76.3,71,74.9z"/>
<path id="left" class="st0" d="M25.9,75V49.8c0-1.3-1.1-2.4-2.4-2.4h-8.9c-1.3,0-2.4,1.1-2.4,2.4v25.3c0,1.3,1.1,2.4,2.4,2.4
	l8.9-0.1C24.9,77.4,25.9,76.3,25.9,75z"/>
<path id="head" class="st1" d="M72,75.2c0,0-0.3-25.7,0-26.1s3.6,0.7,5.2,2.2c7.1-63.9-80.7-55.3-71-1c3.6-1.8,4.8-1.8,5.2-1.8
	c0.4,0,0.3,26.4,0,26.7c-0.3,0.3-10.7,0-8.8-18.9c-21.3-76.9,102.3-72.8,78.7-1C82.6,56.9,84.2,75.3,72,75.2z"/>
</svg>
