<?xml version="1.0" encoding="utf-8"?>
<!-- Generator: Adobe Illustrator 23.0.1, SVG Export Plug-In . SVG Version: 6.00 Build 0)  -->
<svg version="1.1" id="singer_man" xmlns="http://www.w3.org/2000/svg" xmlns:xlink="http://www.w3.org/1999/xlink" x="0px" y="0px"
	 viewBox="0 0 360.8 473.4" style="enable-background:new 0 0 360.8 473.4;" xml:space="preserve">
<style type="text/css">
	.st0{fill:#9B1604;}
	.st1{fill:#7D4546;}
	.st2{fill:#212121;}
	.st3{fill:#9F5E55;}
	.st4{fill:#302A2A;}
	.st5{fill:none;stroke:#000000;stroke-width:4;stroke-miterlimit:10;}
	.st6{fill:none;stroke:#000000;stroke-width:2;stroke-miterlimit:10;}
	.st7{fill:#FFFFFF;}
	.st8{fill:none;stroke:#7E0E04;stroke-width:3;stroke-miterlimit:10;}
	.st9{fill:#BD1200;}
	.st10{fill:#790700;}
	.st11{fill:#760F03;}
	.st12{fill:#A11303;}
	.st13{fill:#1E201E;}
	.st14{fill:none;stroke:#06847A;stroke-width:5;stroke-miterlimit:10;}
	.st15{fill:#06847A;stroke:#06847A;stroke-width:5;stroke-miterlimit:10;}
	.st16{fill:#2D4140;}
	.st17{fill:#06847A;}
</style>
<image style="display:none;overflow:visible;" width="1024" height="1024" xlink:href="../../Downloads/music band.jpg"  transform="matrix(1.6624 0 0 1.4546 -862.1174 -802.9462)">
</image>
<path id="main_vest" class="st0" d="M91.9,117.5c0,0-76.8,67.3-56.6,71.9c20.1,4.6,48.3,3.5,48.9,0L96.2,179c0,0,13.2,62.7,0,87.4
	l12.7,10.4l31.1,12.1l19.6-27.6l-2.3,27.6l49.5-5.2c0,0,28.2-69.6-11.5-158.1l104.7-67.7l-19.6-45c0,0-95.4,82.8-106,77.1
	C163.5,84.1,123.2,114.6,91.9,117.5z"/>
<path id="ear" class="st1" d="M155.6,75.6c0,0,28.4-17.2,8.2,19.9L155.6,75.6z"/>
<path id="no" class="st2" d="M145.1,133l12.6,2.9l7.6,1.7c0,0,0.8-23.2-5.7-24.5c-6.5-1.4-18,14.2-18,14.2s-26.7-5.2-22.3,5.8
	s9,15,9,15s2.4,3.5,5.8-4.6s3.5-8.1,3.5-8.1S148.5,138.8,145.1,133z"/>
<path id="pace" class="st3" d="M141.6,127.3c2-0.5,22.4-15,23.6-23c1.2-8.1-7.8-24.1-7.8-24.1s-42.9-52.4-84,3.4
	C73.4,83.5,74.3,144.5,141.6,127.3z"/>
<path id="hair" class="st4" d="M73.4,83.5c0,0-18.2-21-4.5-19.9c0,0,2.8-13.6,9.6-9.6c0,0,6.8-24.4,22.7-13.6c0,0,21-14.6,25.5-2.8
	c0,0,17-8.6,17.6,3.9c0,0,17-1.7,15.3,7.9c0,0,10.8,0.6,5.1,11.4c0,0,6.8,2.3,5.7,9.6c0,0,8.2,8.5,0.1,13.1c0,0-3-17-13.2-3.4
	c0,0,0.6,5.7-9.1-3.4c-9.6-9.1-8.5,2.3-9.1-3.4c0,0-5.1,2.3-6.2-2.3c0,0-11.6,5.7-14-1.1c0,0-9.2,2.8-9.8,0.6c0,0-6.8,11.9-10.2,5.7
	c0,0-6.8,4-10.8,0c0,0-9.1,5.7-9.6,2.3L73.4,83.5z"/>
<path id="eyebrown_1_" class="st5" d="M96.2,89.9c0,0-13.2-0.2-16.7,4.2"/>
<path id="eyebrown" class="st5" d="M115.7,89.9c0,0,13.8-1.7,16.1,0"/>
<path id="eye_1_" class="st6" d="M99.6,105.4c0,0-7.8,5.9-15.5,0"/>
<path id="eye" class="st6" d="M123.8,103.1c0,0,13.2,7.5,16.1-4"/>
<path id="lips" class="st1" d="M108.8,124.4c0,0,14.9-4.9,19,0S110.6,131.3,108.8,124.4z"/>
<path id="white_shirt" class="st7" d="M155.4,215.2l2.3-79.4c0,0-15.1-15.5-29.4,12.1L155.4,215.2z"/>
<path id="hand" class="st3" d="M283.5,16.4c0,0,13,23.7,11.7,25.6s13.5-2,13.5-2s2.6-2.3-4.3-5.2c0,0,24.4-4.5,2.1-5.9
	c0,0,18-9.5,0.2-10.9c0,0,13.5-22.7-10.6-4.7C296.2,13.2,296.7-10.7,283.5,16.4z"/>
<polyline id="vest_neck" class="st8" points="96.2,179 119.4,183 108.8,194 157.7,243.4 188.8,194 170.9,176.7 188.8,160.6 
	165.2,104.3 "/>
<path id="hightlight_1_" class="st9" d="M188.8,136.6c0,0,19.6,97.3,3.5,125.5l10,9.7C202.3,271.8,225.3,201.7,188.8,136.6z"/>
<path id="hightlight" class="st9" d="M179.4,97.3c1.4-0.7,89-70.8,92.6-68.7s9.7,7.5-9.3,22.5C243.8,66.2,179.4,97.3,179.4,97.3z"/>
<path id="highlight" class="st9" d="M115.7,221.4c0,0,11.1-8.9,10,0s-2,44-2,44s-13.4,6.4-12-6.8
	C113.2,245.3,115.7,221.4,115.7,221.4z"/>
<path id="shadow" class="st10" d="M91.3,121.6c-4.4,0.3-38.5,39-38.5,39s15.2,6.1,19.2,0c1-1.5,4.5-4.3,4.7-1.6
	c0.2,2.9-3.3,8-4.1,13.4c-1.4,9.5-0.6,19.8-0.6,19.8s19.6,4.9,19.8-13.2c0,0-7.6,18.4-10.5,5.1c-2.9-13.2-7.2-38.6,2.7-40.2
	s7.2-1.8,7.2-1.8l10.5-11.8L91.3,121.6z"/>
<path id="pants" class="st11" d="M108.9,274.4c0,0-106.9,182.1-105.4,182.1s49-5.9,52.7,0c3.7,5.9-3.3-11.8-3.3-11.8l90.2-146.6
	l-6.7,39.2c0,0-3.9,9.8,13.2,32.9c17.2,23,59.9,79.9,59.9,79.9l37.2-24l-60.8-78.9c0,0,3.4-6.9-3.4-12.3l24.2-53.6L108.9,274.4z"/>
<path id="highlightvp" class="st12" d="M116.2,315.7c0,0,26.5-23.5,6.9,4.9s-53,78-53,78s-14.2,3.4-8.3-9.8S116.2,315.7,116.2,315.7
	z"/>
<path id="highlight_2_" class="st12" d="M165.8,306.6c0,0,12.7-11.4,6.3,4.7s-22.4,8.9-6.3,41.5s23,39.9,23,39.9s-3.9,14.2-11.8,3.4
	c-7.8-10.8-31.9-50.5-27.9-61.8C153,323.1,165.8,306.6,165.8,306.6z"/>
<path id="highlight_1_" class="st12" d="M188.8,406.9c0.4,3.1,13.2,24,13.2,24s10.3,6.4,5.4-4.9c-4.9-11.3-14.2-22.1-14.2-22.1
	S187.8,398.6,188.8,406.9z"/>
<path class="st12" d="M45.6,419.7c0,0,20.8-20.1,7.2,3.9C39.2,447.6,29.4,450.6,45.6,419.7z"/>
<path id="shoe_1_" class="st13" d="M256.4,435.9l-12.7-5.4c0,0-14.7,7.8-14.7,9.3s-2.5,16.7-2.5,16.7s-32.9-0.5-35.8,9.3h50
	l4.9-17.7h4.9L256.4,435.9z"/>
<path id="shoe" class="st13" d="M15.2,457.9c0,0-8.8,10.8-6.9,10.8s63.7,0,63.7,0s6.9-5.9-3.4-7.8S41.2,454,41.2,454L15.2,457.9z"/>
<line id="mic_leg_1_" class="st14" x1="115.7" y1="171" x2="315.6" y2="422.2"/>
<polygon id="mic_leg" class="st15" points="349.4,391.7 284.5,448.1 290.5,457.8 355.4,399 "/>
<ellipse id="mic_1_" transform="matrix(0.3094 -0.9509 0.9509 0.3094 -78.6578 207.0793)" class="st16" cx="103.2" cy="157.7" rx="23" ry="18.4"/>
<ellipse id="mic" class="st17" cx="106" cy="161.8" rx="9.8" ry="14.1"/>
<path id="hand_1_" class="st3" d="M79.5,166.4c0,0-2.9-21.3,4.6-22.4c7.5-1.2,25.9-6.9,12.1,11.2c0,0,16.7,2,0,6.6
	c0,0,14.4,5.2,0,7.5c0,0,8.1,9.2,0,9.8C88.1,179.6,79.5,166.4,79.5,166.4z"/>
<path id="shirt" class="st7" d="M77.6,164.6c0,0,11.8,12.8,14.2,14.6S74.5,213.6,77.6,164.6z"/>
</svg>
