<svg id="Layer_1" data-name="Layer 1" xmlns="http://www.w3.org/2000/svg" viewBox="0 0 646.7 350.9"><defs><style>.cls-1{fill:#ffe5cf;}.cls-2{fill:#f7e823;}.cls-3{fill:none;stroke-width:2px;}.cls-3,.cls-8{stroke:#000;stroke-miterlimit:10;}.cls-4{fill:#a21002;}.cls-5{fill:#a21001;}.cls-6{fill:#b81300;}.cls-7{fill:#741003;}.cls-9{fill:#696969;}.cls-10{fill:#252525;}.cls-11{fill:#6c6c6c;}</style></defs><title>piano</title><path id="face" class="cls-1" d="M79.6,126.7s23.7-12.9,9.2-42.7c0,0-11.2-17.5-24.2-22.2,0,0-55.5,3.4-31.6,58.8,0,0,24.9,13.9,30.9,6Z" transform="translate(-1.4 -8.3)"/><path id="neck" class="cls-1" d="M91.5,143.1s13.2,14.5,9.7,17-30.7-18.6-30.7-18.6l-6.6-14.9H79.6l3.7,12.9Z" transform="translate(-1.4 -8.3)"/><path id="hair" class="cls-2" d="M64.6,61.8S61,56.1,56,57.6s-12.1-6.2-14.2-.3c0,0-10.7-.5-11.4,4.5,0,0-13.5,1.5-12.1,9.3,0,0-11.4-.7-7.1,11.4,0,0-14.3,6.4-7.8,15.6,0,0-5.7,15.7,2.1,19.3,0,0-5.7,14.2,1.4,14.2s11.4,4.3,13.5,0c0,0-1.4,14.9,4.3,8.5,0,0,10,10.4,12.1,1.6,0,0,25.6,7.7,22.1-3,0,0,6.4-.7,5.7-6.4l-.7-5.7s-18.7-4.7-22.8-20.5c-1-3.9-9-8.4-3.6-19.6C41.7,77.7,64.6,61.8,64.6,61.8Z" transform="translate(-1.4 -8.3)"/><path id="shoe" class="cls-3" d="M50.1,91.6s10.1,2.1,10.2-6.1" transform="translate(-1.4 -8.3)"/><path id="shose" class="cls-3" d="M70.1,80c.8-.3,9.1-1,7.4-6.1" transform="translate(-1.4 -8.3)"/><path id="dress" class="cls-4" d="M71.1,141.4s-17.7,1.3-10.8,15.1,21.5,37.4,21.5,37.4a33.8,33.8,0,0,1,8,28.8c-3.3,17.2-19.3,28.3,4.4,31.6s51,3.8,51,3.8l24.4,95.3s12.1,3.6,11.1-4.4,4.8,5.2,4.8,5.2,3.4,1.3,3.6-2.7,4.6-1.2,5,.2a6.5,6.5,0,0,0,2.5,2.7s10.5.9,10.1-2.7.4-5.2,3.8-3.1,2.9,4.2,3.6-2.7,1.2-12.4,4.2-9.3-35.6-58.4-59.4-84.9c-7.9-8.9-43.9-21.1-44.7-25.1-.5-2.3-10.1-21.6-7.6-23.5s15.7,14.3,15.7,14.3l34.3,2.1,1.2-12.2,1.1-9.2s-34-13-35.3-14.9-32.1-40.1-32.1-40.1S120.5,181.1,71.1,141.4Z" transform="translate(-1.4 -8.3)"/><path id="highlight" class="cls-5" d="M73.9,107.4s6.2-.2,6.5-3.7" transform="translate(-1.4 -8.3)"/><path id="highlight-2" data-name="highlight" class="cls-5" d="M71.6,166s40.9,47.6,44.9,48l40.1,5.5,1-9.6-11.7-3.2s-17.7,7.1-28.4-2.1-41.3-42.4-41.3-42.4l-1.5-2L63,143.9Z" transform="translate(-1.4 -8.3)"/><path id="highlight-3" data-name="highlight" class="cls-6" d="M79.7,158c.9,1.7,32.2,34.9,38.9,38.2s27.3,10.5,27.3,10.5-26.9,9.5-36.5-9.7L76.2,162.2Z" transform="translate(-1.4 -8.3)"/><path id="highlight-4" data-name="highlight" class="cls-7" d="M83.3,150.8S113.1,188,119,191.6s34.7,20.8,38.6,18.3l-32.5-16.6-20.5-34-6.9-8.5,5.1,13.5Z" transform="translate(-1.4 -8.3)"/><path id="highlight-5" data-name="highlight" class="cls-1" d="M158.4,203.4s11.6,2,13.3,3.4,8.1,9.2,8.1,9.2l2.8,2.9h-2.8c-.3,0-.6,1.4-.6,1.4l-8.7-4.8.5,2.5,9.4,5.6s.5,3.2-3.8.4-5.4-4.8-5.4-4.8,8.3,6.5,6.7,6.7-7.5-5.4-7.5-5.4,5.9,4.9,4.7,4.8-5.6-3.3-5.6-3.3,3.9,2.7,2.3,2.8-5.2-3.6-5.2-3.6l-9.7-4.8Z" transform="translate(-1.4 -8.3)"/><path id="chair" class="cls-8" d="M94.2,254.3l51,3.8s2.9,11.3,0,11.7c-.8.2-12.8.2-21.9.2h-9.9l-19.2-.2S85.1,256,94.2,254.3Z" transform="translate(-1.4 -8.3)"/><path id="chair-2" data-name="chair" class="cls-8" d="M91.9,354.5c1.5,1.5,59.5,0,59.5,0l-26.1-9-2-75.5h-9.9l1.9,75.5Z" transform="translate(-1.4 -8.3)"/><path id="pianoup" class="cls-8" d="M214,171.2,247.7,14.7,394.2,8.8s-5.1,50.5-10.1,60.6,255-53,263.4,97.6Z" transform="translate(-1.4 -8.3)"/><polygon id="hightlight" class="cls-9" points="273.3 53.6 242.2 163.8 257.7 163.8 282.6 53.6 282.6 33.4 274.1 46.8 273.3 53.6"/><polygon id="piano_down" data-name="piano down" class="cls-10" points="188.3 163.8 646.2 158.8 646.2 246.1 635.2 246.2 230.4 250.5 221.1 346.9 212.7 246.1 195 246.1 194.2 229.5 150.1 231.2 188.3 206.4 188.3 163.8"/><polygon id="hightlight-2" data-name="hightlight" class="cls-8" points="609.1 346.9 621.8 246.3 596.5 246.6 609.1 346.9"/><polygon id="hightlight-3" data-name="hightlight" class="cls-11" points="290.1 163.8 279.2 250 290.1 249.9 290.1 163.8"/><polygon id="hightlight-4" data-name="hightlight" class="cls-11" points="308.6 243.3 301.5 250.8 331.4 162.2 354.9 162.9 331.8 246.3 308.6 243.3"/><polygon id="hightlight-5" data-name="hightlight" class="cls-11" points="491.3 247.7 536.8 160 503.1 247.6 491.3 247.7"/><polygon id="hightlight-6" data-name="hightlight" class="cls-11" points="536.8 246.1 602.4 158.8 615 158.8 551.1 246.1 536.8 246.1"/><polygon id="hightlight-7" data-name="hightlight" class="cls-11" points="596.5 246.6 646.2 158.8 567.1 246.1 596.5 246.6"/></svg>