<?xml version="1.0" encoding="utf-8"?>
<!-- Generator: Adobe Illustrator 23.0.1, SVG Export Plug-In . SVG Version: 6.00 Build 0)  -->
<svg version="1.1" id="piano" xmlns="http://www.w3.org/2000/svg" xmlns:xlink="http://www.w3.org/1999/xlink" x="0px" y="0px"
	 viewBox="0 0 87.1 79.6" style="enable-background:new 0 0 87.1 79.6;" xml:space="preserve">
<style type="text/css">
	.st0{fill:#6A8A82;}
	.st1{fill:#660D3B;}
</style>
<path id="piano_x5F_body" class="st0" d="M0,74.8v-61C0,6.2,6.2,0,13.8,0L34,0c6.5,0,9.5,4.8,11.8,11.8l0.4,1
	c0,0,4.5,15.6,13.9,15.8c4,0.1,9.4,0.1,14.3,0.1c6.9,0,12.6,5.6,12.6,12.5v33.5c0,2.7-2.2,4.8-4.8,4.8H4.8C2.1,79.6,0,77.4,0,74.8z"
	/>
<path id="keys" class="st1" d="M2.4,58.3h10.8v12.5h5V58.3h2.3v12.5h4.6V58.3h9.6v12.5h4.8V58.3H42v12.5h4.8V58.3H49v12.5h5V58.3
	h9.7v12.5h4.8V58.3H71v12.5h4.3V58.3h9.4v16.4c0,0.9-0.8,1.7-1.7,1.7H3.7c-0.7,0-1.3-0.6-1.3-1.3V58.3z"/>
</svg>
