<?xml version="1.0" encoding="utf-8"?>
<!-- Generator: Adobe Illustrator 23.0.1, SVG Export Plug-In . SVG Version: 6.00 Build 0)  -->
<svg version="1.1" id="Layer_1" xmlns="http://www.w3.org/2000/svg" xmlns:xlink="http://www.w3.org/1999/xlink" x="0px" y="0px"
	 viewBox="0 0 204.4 455.9" style="enable-background:new 0 0 204.4 455.9;" xml:space="preserve">
<style type="text/css">
	.st0{fill:#A25F57;}
	.st1{fill:#804748;}
	.st2{fill:#352520;}
	.st3{fill:none;stroke:#352520;stroke-width:3;stroke-miterlimit:10;}
	.st4{fill:#770E08;}
	.st5{fill:#A71507;}
	.st6{fill:#FFFFFF;}
	.st7{fill:#B81707;}
	.st8{fill:#9E5E56;}
	.st9{fill:#191919;}
	.st10{fill:#A01407;}
	.st11{fill:#1E1D1D;}
	.st12{stroke:#000000;stroke-miterlimit:10;}
	.st13{fill:#FD9601;}
	.st14{fill:#A15E5F;}
	.st15{fill:#FFFEEC;}
	.st16{fill:#DD5308;}
</style>
<path id="face" class="st0" d="M98.5,121.2v-16.8c0,0,39.7-4.8,26.2-45c0,0-7-28.4-26.2-28.6C79.4,30.5,41,55.3,43.7,82l-2.1,12
	c0,0,23.7,17.1,38.4,11.7l0.5,9.1L98.5,121.2z"/>
<path id="ear_2_" class="st1" d="M41.5,94c0,0-22.7,3.2-18.4-12.6s1.1-6.1,3-6.2C28,75,38.9,70.3,43.7,82L41.5,94z"/>
<path id="hair" d="M103.5,27.8c0,0,1.5-15-10.5-9.8c0,0-10.5-11.3-18-6c0,0-14.3-11.8-16.5-1.4c0,0-12.8-7.3-14.3,6.4
	c0,0-10.5-7.3-9,5.5c0,0-12-3.8-13.5,12.8c0,0-7.5-2.3,0,10.5c0,0-6.7-1.5-3.3,9.8c0,0-10.8,11-0.9,15.8c14,6.8-3.2,9,8.8,3.8
	c0,0,0.8-0.1,1.9-0.1c3.4,0,10.1,0.8,10.1,7.6c0,0,9,3.8,10.5,0c1.5-3.8,7.5-7.5,3-16.5c0,0,8.1-2.3,6.7-6c-1.4-3.8,8.3-3.8,8.3-9
	s9.8-1,9-5.8s4.5-3.2,5.3-5.5s9,1.5,11.3-3c1.5-3,6-6,8.8-7.7C102.5,28.3,103.5,27.8,103.5,27.8z"/>
<path id="eye_3_" class="st2" d="M103.6,46.5c0.4-0.2,11,0,11,0s3.2,3.2,0,3.5c-3.2,0.3-11,0-11,0S101.4,47.9,103.6,46.5z"/>
<path id="eye_2_" class="st2" d="M73.5,57.2c0,0,6.9-5.1,11.7-7.1c4.8-2,4.8,2.3-1.6,5.7C77.3,59.3,69.5,63.6,73.5,57.2z"/>
<path id="eye" class="st3" d="M66.6,71.1c0,0,10.9,9.1,18.9-3.5"/>
<path id="eye_1_" class="st3" d="M107.1,62.8c0,0,13.1,5.3,13.9-4"/>
<path id="lips" class="st1" d="M95.1,97.2c0,0,8.3-25.6,25.9-11.7C121,85.5,110.3,111.6,95.1,97.2z"/>
<path id="pants" class="st4" d="M45.7,252.8l24,181.2l43.2,5.3L83.7,277.6l12.7-6.5l41.8,165.5l46.8-2.8l-60.2-156.1
	C124.8,277.6,68.7,244.6,45.7,252.8z"/>
<path id="vest" class="st5" d="M80.4,114.8L49.8,118c0,0-21.6,51.2-39.7,75.4c0,0-10.1,1.6,38.1,26.1l-10.7,29.1l48,25.1l10.9-10.4
	l2.1,14.4h30.7l1.3-137l-8.5-8.3L99,116.9l-0.3,4.2l14.8,18.7l1.1,59.4C114.6,199.3,77.5,120.6,80.4,114.8z"/>
<polygon id="hl" class="st6" points="58.1,158.5 44.5,179.3 56.2,187 "/>
<polygon id="hightlight" class="st4" points="64.5,116.4 74.9,164.9 81.8,164.9 79.4,174.7 98.5,196.2 62.1,180.1 58.1,158.5 
	56.2,187 98.5,209.1 102.6,209.1 107.9,196.2 82,174.2 86.3,162.8 77.3,161.7 "/>
<path id="highlight" class="st7" d="M42.6,151.3c0,0,7.7-8,5.3,2.7c0,0-21.1,20.5-6.4,31.2C56.2,195.8,78.1,207,78.1,207
	s-0.3,4-7.2,2.1c-6.9-1.9-38.9-24.8-38.9-24.8S29.8,173.1,42.6,151.3z"/>
<path class="st8" d="M145,148.4"/>
<polygon class="st4" points="48.2,219.5 43,233.8 80.2,243.3 96.4,252.8 96.4,241.4 "/>
<path id="whit_t_shirt" class="st6" d="M114.6,199.3l-0.4-58.7l-33.7-25.8c0,0-0.7,12.1,11.8,34.7L114.6,199.3z"/>
<path class="st9" d="M98.1,127.7c0,0-22.4-14.9-16.5,1.6c5.9,16.5,2.1,21.6,11.5,12.8s6.9-6.4,6.9-6.4s7.2,1.6,7.6-0.5l11.3,5.6
	c0,0,5.3-1.3,4-5.3s-2.4-13.9-2.4-13.9s-5.3-6.6-10.4,1.4s-3.5,3.2-3.5,3.2S99.1,124.8,98.1,127.7z"/>
<path class="st10" d="M74.2,290.5c0.2,2.2,5.3,52.4,7.2,50.9c1.9-1.6,8.1,23.4,3.7-6.9c-4.4-30.3-6.2-44-6.2-44
	S73.8,284.3,74.2,290.5z"/>
<path class="st10" d="M83.7,355.7l5.1,38.1c0,0,4.7,7.8,4.4-2.8c-0.3-10.6-4.7-36.5-4.7-36.5S83.2,351.7,83.7,355.7z"/>
<path class="st10" d="M124.8,291.7c0,0,0.3-6.2,3.4,0c3.1,6.2,46.2,128.9,46.2,128.9s0.9,10.9-5.6,0S124.8,291.7,124.8,291.7z"/>
<path class="st11" d="M69.7,434.1c0,0-10.8,10.9-7.7,11.2c3.1,0.3,14.3,2.2,21.7,1.6c7.4-0.6,11.1,0.1,11.1,0.1v-9.8L69.7,434.1z"/>
<path class="st11" d="M145.7,436.1c-0.3,1.4-1.6,10.9-1.6,10.9h10.9c0,0,3.4-1.4,4.4,0c0.9,1.4,40.3,0,40.3,0l-19.9-12.9
	L145.7,436.1z"/>
<path class="st12" d="M136.8,106.7c0,0,3.5-20.4-25.8-12.4l1.3-4.6c0,0,38.1-13.5,37.2,14.8L136.8,106.7z"/>
<path id="saxophone" class="st13" d="M160.4,215.9c0,0,1.6-29,12-26.1c10.4,2.8,11,6.1,11.3,50.3c0.3,44.2-24.3,45.7-25.8,29.7
	c0,0-43.4,18.3-57.3-10.1s1.6-39.6,28-113.3c0,0,11-19.6,8.2-39.7l12.6-2.2c0,0,12.4,6.1,1.6,41.9c-10.8,35.8-23,47.8-23.5,65.5
	C127.1,229.5,130.2,238.9,160.4,215.9z"/>
<path id="hand" class="st8" d="M93.8,211c0,0-13.4,6.7-9.2,25.6l23.4,3.5c0,0,4,0.5,1.1-2.7l-6.1-2.7c0,0-1.1-4.3,1.9-2.4
	s8.8,3.5,8.8,3.5s4.5-0.8-5.6-6.1c-10.1-5.3,4.3-1.6,4.3-1.6l5.3,0.8c0,0,7.2,2.7,0-3.3s-9.6-4.9-9.6-4.9s-3.2-1.3,2.4-1.1
	s8.3,0.8,9.1,1.6c0.8,0.8,3.5,1.9,3.5,1.9s5.3-1.9-1.6-5.9C114.3,213.1,106.3,207,93.8,211z"/>
<path id="hand_1_" class="st14" d="M145,148.4c0,0,15.7,0.2,12.5,19.7c-3.2,19.5-17.3,14.1-17.3,14.1L134,179c0,0-2.9-3.2,0-2.7
	s8.3,1.3,8.3,1.3s3.5-2.9-1.3-4.9c-4.8-2-10.3-4.4-8.2-4.9s10.6,0.8,10.6,0.8s4.5,0.5,0.3-3c-4.3-3.4-9.3-4-9.3-4s-1.3-3.5,1.1-3.2
	c2.4,0.3,9.6,3.2,9.6,3.2s3.7,1.1,2.1-3.2c-1.6-4.3-5.9-6.7-5.9-6.7S141.8,146.3,145,148.4z"/>
<path id="hightlight_4_" class="st15" d="M147.8,113c0,0,0.3-12,4.1-1.6s1.6,21.3,1.6,21.3s-6,7.7-5.7,0
	C148.2,124.9,147.8,113,147.8,113z"/>
<path id="hightlight_3_" class="st15" d="M127.5,185.1c0,0,7.1-11.5,2.7,1.9c-4.4,13.5-7,24.3-7.1,12.3
	C123,187.3,127.5,185.1,127.5,185.1z"/>
<path id="hightlight_2_" class="st15" d="M135.9,236.2c0,0,24.6-2.3,0,5.9c0,0-24.1,1.8-23.7-14
	C112.2,228.1,118.9,241.3,135.9,236.2z"/>
<path id="hightlight_1_" class="st15" d="M165.5,199.3c0,0,13.2-20.8,9,2.2c-4.2,23-10.9,39-6.8,63.3c0,0-3.1,20.8-5.4,0
	S165.5,199.3,165.5,199.3z"/>
<path id="hightlight_5_" class="st16" d="M157.9,223.5c0,0-14.2,17-5.3,42.8c0,0,1.3,4.4,3.1,2.8
	C157.6,267.6,157.9,223.5,157.9,223.5z"/>
<path id="hightlight_6_" class="st16" d="M174.5,212.5c0,0,3-30.5,4.6-6s-4.6,57-4.6,57s-3.6,12.6-4.6-1.9
	C168.9,247.1,174.5,212.5,174.5,212.5z"/>
<ellipse id="ssp_but" cx="157.1" cy="125.5" rx="3.3" ry="2.4"/>
<ellipse id="ssp_but_1_" cx="155.4" cy="136.1" rx="3.3" ry="2.4"/>
<ellipse id="ssp_but_2_" cx="152.1" cy="146.4" rx="3.3" ry="2.4"/>
<ellipse id="ssp_but_3_" cx="135" cy="189.4" rx="3.3" ry="2.4"/>
<ellipse id="ssp_but_4_" cx="130.7" cy="202" rx="3.3" ry="2.4"/>
<ellipse id="ssp_but_5_" cx="127.5" cy="213.5" rx="3.3" ry="2.4"/>
</svg>
