<?xml version="1.0" encoding="utf-8"?>
<!-- Generator: Adobe Illustrator 23.0.1, SVG Export Plug-In . SVG Version: 6.00 Build 0)  -->
<svg version="1.1" id="saxophone" xmlns="http://www.w3.org/2000/svg" xmlns:xlink="http://www.w3.org/1999/xlink" x="0px" y="0px"
	 viewBox="0 0 81.6 80.4" style="enable-background:new 0 0 81.6 80.4;" xml:space="preserve">
<style type="text/css">
	.st0{fill:#6A8A82;}
	.st1{fill:#660D3B;}
</style>
<path id="saxo" class="st0" d="M65.5,76.5C68.6,79.5,84,86,81.3,70c-0.9-5.7-16.9-30.6-8.5-33.6c3.2-0.4-3.3-4.4-13.1-5.2
	c-2.2-0.2-0.8,0.8-0.1,1.4s0.4,7,0.6,9.4c0.3,3.1,1.4,6.7,10.8,23c3,5.2,2.4,11.9-3.6-0.2c-0.9-1.8-32.8-53.2-33.8-55.1
	c-1-2-5.7-17-17-5.1c-2.7,4.2-1.6,5-9.9,8.3C4,14,0.6,16.7,0.1,17.4s2.8,1.5,10.1-2.8s8.9-8,10-8.6s3.9-3.4,7.5,0.8
	c0,0,0.1,3.3,0.1,4.3s5.7,14.6,6.7,16.4C35.5,29.3,54.9,66.6,65.5,76.5z"/>
<path id="keys" class="st1" d="M69.6,69.3c0,0,1-2.7,0.9-3.6c-0.2-0.9-3.4-6.7-3.4-6.7l-8.3-14.2l-6.9-12.7c0,0-3.3-1.3-4-1.4
	c-0.7-0.1-2.7-5.4-3.1-6.1c-0.4-0.7-4-3.8-4.3-3.7S69.6,69.3,69.6,69.3z"/>
</svg>
