<svg id="singer" xmlns="http://www.w3.org/2000/svg" viewBox="0 0 165 411.5"><defs><style>.cls-1{fill:#9d5d55;}.cls-2{fill:#020202;}.cls-3,.cls-9{fill:none;}.cls-3{stroke:#020202;stroke-width:2px;}.cls-10,.cls-3,.cls-9{stroke-miterlimit:10;}.cls-4{fill:#810403;}.cls-5{fill:#a21001;}.cls-6{fill:#800b00;}.cls-7{fill:#e11506;}.cls-8{fill:#8a524b;}.cls-10,.cls-9{stroke:#007a6e;stroke-width:3px;}.cls-10{fill:#007a6e;}</style></defs><title>singer</title><path id="body" class="cls-1" d="M70,89.3v13.5s-2.7,1.9-12.2,0-16.1.1-16.6,9.1,1,63.1,1,63.1l-22-44.4s14.1-10.4,3.4-15.3c0,0-3-17.5-14.9.7s31.6,77.5,31.6,77.5,10.4,11.7,13.4-7.5a276.3,276.3,0,0,0,3.2-34.9l47.6.5,7.2,29.1s18.3,28.2,23.6-22.2c0,0,3-28.6-3.5-42,0,0,3.7-12.9-5.3-8.8s-12.3,1.9-9.9,11.1c0,0,10.8,5.1,9.2,21.9s-4.6,26.2-4.6,26.2l-1.2,2.5L113.3,144s-7.2-35-19.1-36.3c-3.1-.4-13,1-13.2-1.3s.9-9.2.9-9.2Z" transform="translate(-6.7 -9.4)"/><path id="Face" class="cls-1" d="M116.5,93.6s18.7-8,11.8-42.2c0,0-18.3-36.1-71.4,10.9,0,0-6.5,18.7,6.4,18.3A38,38,0,0,0,94.2,100C116.5,101.7,116.5,93.6,116.5,93.6Z" transform="translate(-6.7 -9.4)"/><path id="Hair" class="cls-2" d="M79.2,53a11.1,11.1,0,0,0,6.9,0h4.4c6.5-3.3,5.7-3.3,8.5-3.3h6.5l3.3-4.4,4.8,2a28.1,28.1,0,0,1,4.1,2.1c3.7,2,5.3,1.2,10.6,2s17.4-5.7,3.2-21.5,9.3-9.4-13.8-13.4c0,0-2.4-7.7-11.4-4.9,0,0-15.8-5.7-17.8,1.2,0,0-13-7.7-19.1,4.5,0,0-8.9.4-10.1,9.7,0,0-6.5-5.7-8.9-3.6,0,0-4.5-9-13.8-1.2,0,0-25.6-2.1-17.9,16.6,0,0-21.1,15.4,6.5,27.2,0,0,1.2,15.8,16.2,6.9,0,0,11.4,4.8,15.5-10.6,0,0,18,13.4,17.7-2Z" transform="translate(-6.7 -9.4)"/><path id="Eyebrown" class="cls-2" d="M86.8,64.3s11.9-6.2,16.6-3.2,0,3.2,0,3.2-17.3-.5-16.6,2.8S86.8,64.3,86.8,64.3Z" transform="translate(-6.7 -9.4)"/><path id="Eyebrown-2" data-name="Eyebrown" class="cls-2" d="M115.8,61.7s10.7-2.1,11.6,2.5-.7,1.7-.7,1.7L115.8,64Z" transform="translate(-6.7 -9.4)"/><path id="left_eye" data-name="left eye" class="cls-3" d="M81.9,70.8s9.9,10.3,17.8,5.7" transform="translate(-6.7 -9.4)"/><path id="right_eye" data-name="right eye" class="cls-3" d="M115.8,75.6s10,4.5,12.5-1.4" transform="translate(-6.7 -9.4)"/><path id="Lip" class="cls-4" d="M92.3,98.2s13.8-15.7,24.3-5.3C116.6,92.9,113.1,111,92.3,98.2Z" transform="translate(-6.7 -9.4)"/><path id="dress" class="cls-5" d="M56.9,152.1s10.7-45.5,34.4-19.7c0,0,7.6-20.3,20.4-5.7s-7.2,24.5-7.2,24.5,9.5,43.2,12.5,47.5,25,50.7,18,77.9,9.8,132.6,9.8,132.6,3.2,19.4-15.1,8.2-29.5.8-30.9.8-21.3,5.1-25.4-3.9-24.5,8.4-30.6,3.9-5-9.7-8.8-5-4.3,8.8-7.1,4.8-9-9-12.7-3.6,1.2-42.3,1.2-42.3S47,248.9,51.1,237.8,69.6,199,75.6,201.1C75.6,201.1,75.6,164.6,56.9,152.1Z" transform="translate(-6.7 -9.4)"/><path id="hightlight" class="cls-6" d="M72,157.4s20.3,1.2,21.7-7.2l10.8,1S87.9,167.6,72,157.4Z" transform="translate(-6.7 -9.4)"/><path id="hightlight-2" data-name="hightlight" class="cls-7" d="M78.9,204.8s-19,16.1-20.3,29.5-3.5,16.9-3.5,16.9S65.6,218.8,78.9,204.8Z" transform="translate(-6.7 -9.4)"/><path id="hightlight-3" data-name="hightlight" class="cls-7" d="M103.4,164.6s5.7,6.2,5.8,20.8,1.3,19.4,1.3,19.4" transform="translate(-6.7 -9.4)"/><path id="hightlight-4" data-name="hightlight" class="cls-7" d="M123.5,220.2s12.4,33.5-1.6,75.1l-1.6,6s9.2-9.1,10.8-35.7S125.5,220.2,123.5,220.2Z" transform="translate(-6.7 -9.4)"/><polygon id="hightlight-5" data-name="hightlight" class="cls-8" points="48.5 110.7 50.2 142.7 56.3 126.7 48.5 110.7"/><path id="hightlight-6" data-name="hightlight" class="cls-6" d="M36,410.3s7-59,15.8-73" transform="translate(-6.7 -9.4)"/><path id="hightlight-7" data-name="hightlight" class="cls-6" d="M68.4,410.3c.2-.8,6.2-45.6,6.2-45.6l-1.2,49.6,2.2,1s8.4.8,8,3.2" transform="translate(-6.7 -9.4)"/><path id="hightlight-8" data-name="hightlight" class="cls-6" d="M103.4,415.5s-.4-19.6,2.6-35.2,5.2,30.3,5.7,31.4" transform="translate(-6.7 -9.4)"/><path id="hightlight-9" data-name="hightlight" class="cls-6" d="M137.3,419.5c0-15-1-19.4-4.8-24.4S137.3,419.5,137.3,419.5Z" transform="translate(-6.7 -9.4)"/><path id="hightlight-10" data-name="hightlight" class="cls-7" d="M57.6,296.3s-13,10.6-20.6,37" transform="translate(-6.7 -9.4)"/><polyline class="cls-9" points="163.5 393.7 163.5 165.8 146.7 103.3"/><polygon id="mic" class="cls-9" points="136 102 158.7 107.4 159.8 103.3 138.8 93.4 136 102"/><path id="mic-2" data-name="mic" class="cls-10" d="M145.5,101.8s-14.3,1.2-2.2,10.1" transform="translate(-6.7 -9.4)"/></svg>