<?xml version="1.0" encoding="utf-8"?>
<!-- Generator: Adobe Illustrator 23.0.1, SVG Export Plug-In . SVG Version: 6.00 Build 0)  -->
<svg version="1.1" id="Layer_1" xmlns="http://www.w3.org/2000/svg" xmlns:xlink="http://www.w3.org/1999/xlink" x="0px" y="0px"
	 viewBox="0 0 2112.4 1926.4" style="enable-background:new 0 0 2112.4 1926.4;" xml:space="preserve">
<style type="text/css">
	.st0{fill:none;}
	.st1{fill:url(#background_1_);}
	.st2{fill:url(#flooe_1_);}
	.st3{fill:#C52830;}
	.st4{fill:#9B242F;}
	.st5{fill:#FFDF1F;}
	.st6{display:none;}
	.st7{display:none;opacity:0.49;}
	.st8{display:none;fill:url(#under_stage_1_);stroke:#000000;stroke-miterlimit:10;}
	.st9{stroke:url(#New_Pattern);stroke-miterlimit:10;}
	.st10{font-family:'Beautiful-and-Openhearted';}
	.st11{font-size:152.0922px;}
	.st12{fill:url(#SVGID_1_);}
	.st13{font-size:409.1658px;}
	.st14{letter-spacing:0.9;}
	.st15{fill:url(#SVGID_2_);}
	.st16{fill:url(#SVGID_3_);stroke:#000000;stroke-width:3;stroke-miterlimit:10;}
	.st17{fill:url(#SVGID_4_);stroke:#000000;stroke-width:3;stroke-miterlimit:10;}
	.st18{fill:none;stroke:#E59E03;stroke-width:2;stroke-miterlimit:10;}
	.st19{fill:#FFFFFF;}
	.st20{font-family:'BodoniSvtyTwoSCITCTT-Book';}
	.st21{font-size:40px;}
	.st22{fill:#C69C6D;stroke:#FFFFFF;stroke-miterlimit:10;}
</style>
<pattern  x="-79.4" y="-240.5" width="94.8" height="89.3" patternUnits="userSpaceOnUse" id="New_Pattern" viewBox="0 -89.3 94.8 89.3" style="overflow:visible;">
	<g>
		<rect x="0" y="-89.3" class="st0" width="94.8" height="89.3"/>
		
			<image style="overflow:visible;" width="395" height="372" xlink:href="C17D1402B0D83C5B.jpg"  transform="matrix(0.24 0 0 0.24 0 -89.28)">
		</image>
	</g>
</pattern>
<pattern  x="-79.4" y="-240.5" width="94.8" height="89.3" patternUnits="userSpaceOnUse" id="Twinkle" viewBox="0 -89.3 94.8 89.3" style="overflow:visible;">
	<g>
		<rect x="0" y="-89.3" class="st0" width="94.8" height="89.3"/>
		
			<image style="overflow:visible;" width="395" height="372" xlink:href="C17D1402B0D83C59.jpg"  transform="matrix(0.24 0 0 0.24 0 -89.28)">
		</image>
	</g>
</pattern>
<linearGradient id="background_1_" gradientUnits="userSpaceOnUse" x1="1.1173" y1="486.6005" x2="2112.8369" y2="488.345">
	<stop  offset="0.2272" style="stop-color:#E4D4C3"/>
	<stop  offset="0.3355" style="stop-color:#DFCEBD"/>
	<stop  offset="0.482" style="stop-color:#D0BEAC"/>
	<stop  offset="0.6503" style="stop-color:#B7A48F"/>
	<stop  offset="0.8335" style="stop-color:#957F68"/>
	<stop  offset="1" style="stop-color:#70583E"/>
</linearGradient>
<rect id="background" x="1.5" class="st1" width="2110.9" height="974.9"/>
<linearGradient id="flooe_1_" gradientUnits="userSpaceOnUse" x1="1066.6556" y1="368.9755" x2="1050.2404" y2="2199.8403">
	<stop  offset="0.3067" style="stop-color:#603813"/>
	<stop  offset="0.3841" style="stop-color:#603813"/>
	<stop  offset="0.6124" style="stop-color:#8C6239"/>
	<stop  offset="0.9013" style="stop-color:#704226"/>
</linearGradient>
<rect id="flooe" x="-0.8" y="970.5" class="st2" width="2115.6" height="955.8"/>
<g id="curtain_1_">
	<path id="curtain" class="st3" d="M200.9,0c0,0-84.2,534.4-187.6,659.5c0,0,98.3,533.4,105.9,566.7c7.7,33.3,7.7,33.3,7.7,33.3
		s-125.3,25.7-125.3,0S1.5,0,1.5,0H200.9z"/>
	<path id="shadow_2_" class="st4" d="M160.8,3c0,0-94,485.4-116.3,536S135.9,32.3,136.6,0L160.8,3z"/>
	<polygon id="shadow_1_" class="st4" points="13.2,761.2 24.3,1270.6 57,1269.8 	"/>
	<path id="shadow" class="st4" d="M41.6,962.8c5.6,17.1,45.6,308.1,45.6,308.1l14-6.8L41.6,962.8z"/>
	<path class="st4" d="M41.6,0h47c0,0-10.7,242.5-60.9,461.6C27.8,461.6,61.5,54.3,41.6,0z"/>
	<path id="yellow_ct" class="st5" d="M1.5,651.4l13.2,1c0,0,4.6,8.1,0,11H1.5V651.4z"/>
</g>
<g id="curtain_2_">
	<path id="curtain_3_" class="st3" d="M1913.1,0c0,0,84.2,534.4,187.6,659.5c0,0-98.3,533.4-105.9,566.7
		c-7.7,33.3-7.7,33.3-7.7,33.3s125.3,25.7,125.3,0s0-1259.5,0-1259.5L1913.1,0z"/>
	<path id="shadow_5_" class="st4" d="M1953.2,3c0,0,94,485.4,116.3,536c22.3,50.6-91.5-506.8-92.1-539L1953.2,3z"/>
	<polygon id="shadow_4_" class="st4" points="2100.7,761.2 2089.7,1270.6 2057,1269.8 	"/>
	<path id="shadow_3_" class="st4" d="M2072.4,962.8c-5.6,17.1-45.6,308.1-45.6,308.1l-14-6.8L2072.4,962.8z"/>
	<path class="st4" d="M2072.4,0l-47,0c0,0,10.7,242.5,60.9,461.6C2086.2,461.6,2052.4,54.3,2072.4,0z"/>
	<path id="yellow_ct_1_" class="st5" d="M2112.4,651.4l-13.2,1c0,0-4.6,8.1,0,11h13.2V651.4z"/>
</g>
<rect id="text_box" x="4.2" y="1828.1" class="st6" width="2110.6" height="258.7"/>
<rect id="fill_box" x="4.2" y="1281.9" class="st7" width="2105.6" height="546.2"/>
<linearGradient id="under_stage_1_" gradientUnits="userSpaceOnUse" x1="1069.319" y1="3651.1404" x2="1055.8022" y2="1540.2679">
	<stop  offset="0" style="stop-color:#C69C6D"/>
	<stop  offset="0.3204" style="stop-color:#A1784C"/>
	<stop  offset="0.7695" style="stop-color:#724A23"/>
	<stop  offset="0.9944" style="stop-color:#603813"/>
</linearGradient>
<rect id="under_stage" x="1.5" y="1309.9" class="st8" width="2110.9" height="827.7"/>
<text transform="matrix(0.8561 -0.5168 0.5168 0.8561 659.1446 385.7962)" class="st9 st10 st11">Evening </text>
<g>
	<text transform="matrix(1.1565 3.376863e-03 -2.920000e-03 1 815.048 504.1045)">	<pattern  id="SVGID_1_" xlink:href="#Twinkle" patternTransform="matrix(1.1724 0 0 1.1724 1137.2578 940.3866)">
	</pattern>
<tspan x="0" y="0" class="st12 st10 st13 st14">S</tspan>	<pattern  id="SVGID_2_" xlink:href="#Twinkle" patternTransform="matrix(1.1724 0 0 1.1724 1137.2578 940.3866)">
	</pattern>
<tspan x="202.5" y="0" class="st15 st10 st13">how</tspan></text>
	<text transform="matrix(1.1565 3.376863e-03 -2.920000e-03 1 815.048 504.1045)">	<pattern  id="SVGID_3_" xlink:href="#New_Pattern" patternTransform="matrix(1.1724 0 0 1.1724 1137.2578 940.3866)">
	</pattern>
<tspan x="0" y="0" class="st16 st10 st13 st14">S</tspan>	<pattern  id="SVGID_4_" xlink:href="#New_Pattern" patternTransform="matrix(1.1724 0 0 1.1724 1137.2578 940.3866)">
	</pattern>
<tspan x="202.5" y="0" class="st17 st10 st13">how</tspan></text>
	<text transform="matrix(1.1565 3.376863e-03 -2.920000e-03 1 815.048 504.1045)"><tspan x="0" y="0" class="st18 st10 st13 st14">S</tspan><tspan x="202.5" y="0" class="st18 st10 st13">how</tspan></text>
</g>
<text transform="matrix(1 0 0 1 92.8327 1821.1707)" class="st19 st20 st21">Guitarist</text>
<text transform="matrix(1 0 0 1 425.9 1823.1707)" class="st19 st20 st21">Singer 1</text>
<text transform="matrix(1 0 0 1 991.9505 1825.1707)" class="st19 st20 st21">Pianist</text>
<text transform="matrix(1 0 0 1 1465.7766 1825.1714)" class="st19 st20 st21">Singer 2</text>
<text transform="matrix(1 0 0 1 1850.4199 1825.171)" class="st19 st20 st21">Saxophonist</text>
<path class="st22" d="M-0.8,1281.5c25.1-10.9,2105.6,0,2105.6,0"/>
<path class="st22" d="M4.2,1892.3c25.1-10.9,2105.6,0,2105.6,0"/>
</svg>
