<?xml version="1.0" encoding="utf-8"?>
<!-- Generator: Adobe Illustrator 23.0.2, SVG Export Plug-In . SVG Version: 6.00 Build 0)  -->
<svg version="1.1" id="Layer_1" xmlns="http://www.w3.org/2000/svg" xmlns:xlink="http://www.w3.org/1999/xlink" x="0px" y="0px"
	 viewBox="0 0 893.8 388.1" style="enable-background:new 0 0 893.8 388.1;" xml:space="preserve">
<style type="text/css">
	.st0{enable-background:new    ;}
	.st1{fill:none;stroke:#DED282;stroke-miterlimit:10;}
	.st2{fill:#DED282;}
	.st3{fill:none;stroke:#000000;stroke-width:3;stroke-miterlimit:10;}
	.st4{fill:none;stroke:#E59E03;stroke-width:2;stroke-miterlimit:10;}
</style>
<g class="st0">
	<path d="M53.7,96.6l2.5,1.8c-0.6,1.4-1.2,2.6-1.7,3.7c-0.6,1.1-1.2,2.3-2,3.9c-0.8,1.5-1.4,2.6-1.8,3.4c-3.5,6.6-6.9,10-10.1,10.1
		c-1.4,0-2.6-0.5-3.6-1.5c-1-1.1-1.6-2.5-1.6-4.4c-0.1-2.7,0.7-6.4,2.5-11.1c1.8-4.7,4.5-10.5,8.3-17.5c3.8-6.9,8.5-14.8,14.3-23.6
		c5.8-8.8,12.3-18.1,19.5-27.9c-4.4-0.5-9.6-0.7-15.5-0.5c-6.9,0.2-14.5,1.2-22.9,3.1c-8.4,1.8-15.7,3.8-21.9,6
		c-6.2,2.2-9.3,3.8-9.2,4.7c0,0.3,0.1,0.6,0.4,0.7c0.3,0.1,0.7,0.2,1.2,0.3c0.6,0.1,1.3,0.1,2.2,0.2c5.8,0.6,8.7,1.4,8.8,2.4
		c0,0.5-1.2,0.8-3.8,0.8c-2.5,0.1-5.6,0.1-9.1,0.3c-2.8,0.1-4.9,0-6.1-0.1c-1.3-0.2-2.1-0.6-2.6-1.2c-0.4-0.6-0.7-1.5-0.7-2.8
		c0-0.8,0.2-2.7,0.6-5.5C1.8,36.5,3.1,32.2,5,29c1.8-3.2,4.8-5.9,8.7-8.1c4-2.1,9.5-3.9,16.5-5.3c11.8-2.4,21.6-3.8,29.4-4
		c5.7-0.2,10.3-0.1,13.6,0.3c3.3,0.4,5.8,1,7.4,1.8c1.6,0.8,2.6,1.7,3.1,2.5c0.4,0.9,1.1,2.3,1.8,4.4l2.5,6.8
		c0.2,0.4,0.3,0.8,0.4,1.1c0.1,0.3,0.2,0.6,0.3,0.8c0.1,0.3,0.1,0.6,0.1,0.8c0.1,1.9-0.3,3.7-1.1,5.2c-0.8,1.6-2.3,3.9-4.5,7.1
		c-2.2,3.1-3.8,5.6-4.8,7.4C66.2,70.9,58,86.5,53.7,96.6z"/>
	<path d="M134.6,85.3l0.2,4.7c-4.2,4.5-7.8,8.3-10.8,11.2c-3.1,2.9-5.7,5.1-8,6.6c-2.3,1.5-4.3,2.3-5.9,2.3c-3.9,0.1-5.9-2.1-6-6.6
		c-0.1-3.7,0.9-7.9,3.2-12.8c2.2-4.9,5.5-10.7,9.8-17.4c-2.2,1.3-4.2,2.8-6.2,4.5c-1.9,1.7-3.6,3.4-5.1,5.2
		c-1.5,1.8-2.7,3.3-3.7,4.6c-3.1,3.7-6.1,7.5-8.9,11.4c-2.8,3.9-4.8,6.4-5.8,7.6c-1,1.2-2,1.8-2.9,1.8c-3.9,0.1-5.9-4.6-6.3-14.1
		c-0.1-3.1,0.3-6.6,1.1-10.4c0.8-3.8,3.2-8.8,7.1-15.2c8.2-13.2,15.3-24.1,21.2-32.5c5.9-8.4,10.8-14.8,14.7-19.2
		c3.9-4.4,6.6-6.5,8-6.5c1.7,0.1,3.1,0.4,4.2,0.9c1.1,0.5,1.6,1.1,1.7,1.8c0,1.2-0.7,3.3-2.4,6.2c-1.6,2.9-4.4,7.4-8.4,13.6
		c-4.3,6.5-7.3,11.1-9.1,13.8c-1.8,2.7-4.5,6.4-8.1,11.3c-3.6,4.9-6.9,9.3-9.8,13.1c-3,3.8-6.4,8-10.2,12.5l0.3,8.9
		c6.4-7.6,11.9-13.8,16.6-18.7c4.7-4.9,8.7-8.5,12-11.1c3.3-2.5,5.7-3.8,7.3-3.8c1.5,0,2.9,0.8,4.2,2.5c1.3,1.7,2,3.1,2.1,4.3
		c0,0.5-0.2,1.1-0.7,1.9c-3.4,4.4-6.1,8-8.2,10.9c-2,2.9-3.5,5.4-4.6,7.7c-1.1,2.2-1.6,4.2-1.5,5.7c0.1,2.3,1.2,3.5,3.5,3.4
		C121.5,95.4,126.7,92,134.6,85.3z"/>
	<path d="M146.6,87.6l0.1,1.9c0.1,2.9,0.9,5.2,2.4,6.8c1.5,1.6,3.4,2.3,5.7,2.3c2.4-0.1,4.9-0.7,7.5-2c2.6-1.2,5.1-2.8,7.6-4.8
		c2.5-2,5.6-4.6,9.2-7.9l0.1,4.5c-5.4,6.9-10.4,12.2-15.2,16c-4.8,3.7-9.7,5.7-14.7,5.9c-4.4,0.1-7.9-1.4-10.6-4.8
		c-2.7-3.3-4.1-8-4.3-13.9c-0.2-5.2,0.9-9.9,3.2-14.3c2.3-4.3,6.1-8.9,11.4-13.8c3.7-3.3,7.3-5.9,11-7.6c3.7-1.8,6.9-2.7,9.9-2.8
		c2.3-0.1,4.2,0.4,5.6,1.4c1.4,1,2.1,2.6,2.2,4.7c0.1,3.1-1,6.3-3.2,9.4c-2.2,3.2-5.7,6.4-10.3,9.6
		C159.2,81.4,153.5,84.6,146.6,87.6z M147.2,82.8c4.4-1.9,8.1-4.2,11.2-6.8c3.1-2.7,5.3-5.2,6.8-7.6c1.4-2.4,2.1-4.1,2.1-5.2
		c0-1.1-0.6-1.7-1.6-1.7c-0.9,0-2.3,0.6-4.3,1.9c-2,1.2-3.9,2.8-5.9,4.7c-2,1.9-3.8,4.1-5.3,6.6C148.5,77.1,147.6,79.8,147.2,82.8z"
		/>
	<path d="M317.1,9.1l0.2,5c0.1,2.1-0.3,3.4-1.1,4c-0.8,0.6-3.7,2.1-8.8,4.7c-5.1,2.5-10,5.5-14.6,8.9c1.7-2.7,3.3-4.8,4.8-6.1
		c1.5-1.3,3.5-3,6-5c-2.3-0.8-5.4-1.2-9.3-1c-6.1,0.2-12.7,1.6-19.7,4.3c-7,2.7-13,5.8-17.8,9.3c-4.9,3.5-7.3,6.4-7.2,8.7
		c0,1.2,0.8,2.1,2.4,2.9c1.5,0.7,4,1.2,7.3,1.5c3.4,0.3,7.5,0.5,12.5,0.4c5,0,11.2-0.1,18.5-0.4c5.3-0.2,8.8-0.1,10.3,0.3
		c1.5,0.3,2.3,1.2,2.4,2.7c0.1,1.8-0.8,4-2.5,6.4c-1.7,2.4-4.1,3.9-7,4.4c-4.6,0.9-8.2,1.6-10.9,2.3c-2.7,0.6-5.9,1.6-9.6,3
		c-3.7,1.4-7.8,3.3-12.3,5.8c-6.7,3.8-11.8,7.6-15.5,11.4c-3.7,3.8-5.5,7.1-5.4,9.9c0.1,2.4,1.5,4.3,4.3,5.5
		c2.8,1.3,6.7,1.8,11.8,1.7c17.6-0.6,35.2-9.1,52.9-25.4c0.3,4.8-0.1,9.1-1.2,12.9c-1,3.7-3.3,7.3-6.7,10.8
		c-2.9,2.9-7.1,5.8-12.8,8.5c-5.6,2.8-11.8,5-18.5,6.8c-6.7,1.8-13,2.7-19,2.9c-6.9,0.2-12.6-1.2-17.2-4.4c-4.6-3.1-7-7.4-7.2-12.9
		c-0.1-4,0.8-7.9,2.9-11.9c2-4,5.3-7.8,9.6-11.6c4.4-3.7,10-7.2,16.8-10.3c6.8-3.1,14.7-5.7,23.6-7.7c1.3-0.3,1.9-0.7,1.9-1.3
		c0-0.6-0.8-0.9-2.3-1c-1.5-0.1-4.3-0.1-8.3,0c-4,0.1-7.6,0-10.7-0.2c-3.1-0.2-6.3-0.7-9.8-1.6c-3.5-1-6.3-2.8-8.3-5.4
		c-2-2.7-3-5.6-3.2-9c-0.1-4.3,1.3-8.6,4.2-13c2.9-4.4,7.1-8.4,12.6-12.1c5.5-3.6,12.2-6.7,20-9c7.9-2.4,16.5-3.7,26-4
		c5.4-0.2,9.3,0,11.4,0.6c2.2,0.5,3.4,1.3,3.8,2.3C316.8,4.4,317,6.3,317.1,9.1z"/>
	<path d="M324.9,79.2l-1.1,6.3c-0.2,0.8-0.2,1.7-0.2,2.7c0.1,2.7,1.2,4,3.5,3.9c2.1-0.1,7.2-4.4,15.1-13c-0.1-3.2,1-7,3.2-11.3
		c2.2-4.3,4.7-8.1,7.4-11.3c2.7-3.3,4.8-4.9,6.2-5c2.2-0.1,3.3,1.3,3.4,4.2c0.1,1.7-0.3,3.9-1.1,6.4c-0.8,2.5-1.9,5.3-3.4,8.2
		c-1.5,2.9-3.4,6-5.7,9.1c1.3,2.2,2.6,3.3,3.9,3.2c1.1,0,2.3-0.5,3.6-1.3c1.3-0.8,2.9-2,4.8-3.7l0.2,5c-2.7,2.3-4.8,3.8-6.4,4.7
		c-1.6,0.8-3.6,1.3-6.2,1.4c-1,0-2.8-0.6-5.4-1.8c-4.9,5.5-8.8,9.6-11.9,12.4c-3.1,2.8-5.6,4.2-7.6,4.2c-3.4,0.1-6.4-1.8-8.9-5.8
		c-2.5-4-3.9-8.5-4-13.4c-0.2-6.6,3.2-14.6,10.4-24c2.1-2.8,3.9-4.8,5.2-5.9c1.3-1.1,2.9-1.6,4.6-1.7c1.5,0,2.9,0.2,4.3,0.7
		c1.4,0.5,2,1.1,2.1,1.9c0.1,2.5-1.5,6.2-4.6,11C332.9,71.3,329.2,75.6,324.9,79.2z"/>
	<path d="M376.3,80.1l0.1,1.9c0.1,2.9,0.9,5.2,2.4,6.8c1.5,1.6,3.4,2.3,5.7,2.3c2.4-0.1,4.9-0.7,7.5-2c2.6-1.2,5.1-2.8,7.6-4.8
		c2.5-2,5.6-4.6,9.2-7.9l0.1,4.5c-5.4,6.9-10.4,12.2-15.2,16c-4.8,3.7-9.7,5.7-14.7,5.9c-4.4,0.1-7.9-1.4-10.6-4.8
		c-2.7-3.3-4.1-8-4.3-13.9c-0.2-5.2,0.9-9.9,3.2-14.3c2.3-4.3,6.1-8.9,11.4-13.8c3.7-3.3,7.3-5.9,11-7.6c3.7-1.8,6.9-2.7,9.9-2.8
		c2.3-0.1,4.2,0.4,5.6,1.4c1.4,1,2.1,2.6,2.2,4.7c0.1,3.1-1,6.3-3.2,9.4c-2.2,3.2-5.7,6.4-10.3,9.6C389,73.9,383.2,77,376.3,80.1z
		 M376.9,75.2c4.4-1.9,8.1-4.2,11.2-6.8c3.1-2.7,5.3-5.2,6.8-7.6c1.4-2.4,2.1-4.1,2.1-5.2c0-1.1-0.6-1.7-1.6-1.7
		c-0.9,0-2.3,0.6-4.3,1.9c-2,1.2-3.9,2.8-5.9,4.7c-2,1.9-3.8,4.1-5.3,6.6C378.3,69.5,377.3,72.3,376.9,75.2z"/>
	<path d="M458.3,61.2c-8.4,10-12.5,16.9-12.4,20.7c0.1,2.1,1,3.2,2.7,3.1c1.4,0,3.3-0.9,5.5-2.4c2.3-1.6,5.8-4.4,10.5-8.4l0.2,5.1
		c-6.8,7.2-12,12.3-15.7,15.5c-3.7,3.2-6.7,4.8-9.1,4.9c-4.1,0.1-6.2-2.5-6.4-7.8c-0.1-1.6,0.1-3.1,0.6-4.7c0.4-1.5,1.1-3.2,1.9-4.9
		c0.8-1.7,2.1-4.1,3.7-7.3c1.7-3.2,3.6-6.7,5.8-10.7c-2.8,1.5-6.2,4.5-10.3,8.9c-2.7,2.8-5,5.4-6.8,7.8c-1.9,2.5-3.8,5.2-5.9,8.2
		c-2.1,3-3.6,5-4.6,6.1c-1,1-2,1.6-3,1.6c-1.6,0.1-3.1-1.6-4.5-4.8c-1.4-3.3-2.2-7.1-2.4-11.5c-0.1-2.7,0.1-4.9,0.7-6.4
		c0.6-1.6,1.7-3.8,3.5-6.7c3.2-5.4,6.1-9.3,8.5-11.8c2.4-2.5,4.7-3.8,7-3.9c1.6-0.1,2.9,0.2,3.8,0.7c1,0.5,1.5,1.3,1.5,2.5
		c0,0.5-0.1,1-0.4,1.6c-0.3,0.6-0.6,1.1-1,1.5c-0.4,0.5-1.1,1.3-2.3,2.7c-7.5,8.9-11.3,14.7-11.2,17.2c0,1.4,0.5,2.1,1.5,2.1
		c0.6,0,1.7-1,3.4-3c1.6-2,3.8-4.5,6.4-7.7c2.6-3.2,5.7-6.5,9.3-10c3.6-3.5,7.7-6.9,12.3-10.1c2.6-1.9,4.7-2.9,6.4-3
		c0.8,0,1.6,1,2.4,3.2c0.8,2.2,1.3,4.3,1.4,6.6C461.4,57.2,460.4,58.9,458.3,61.2z"/>
	<path d="M499.7,73.3l0.2,5.4c-4.6,6.3-8.9,11.2-13,14.4c-4.1,3.3-7.5,5-10.5,5.1c-4.1,0.1-7.1-1.9-9.3-6.1
		c-2.1-4.2-3.3-8.8-3.4-13.9c-0.1-1.9,0.1-3.8,0.4-5.5c0.3-1.8,0.8-3.2,1.3-4.4c0.5-1.2,1.5-3,2.9-5.4c6.7-11.2,12.9-16.8,18.8-17
		c3-0.1,4.6,1,4.6,3.3c0.1,1.6-0.8,4.1-2.7,7.5c-1.8,3.4-3.5,5.9-5,7.4c-4.2,4.3-6.9,7.3-8.1,9c-1.3,1.7-1.9,3.6-1.8,5.6
		c0.1,1.8,0.8,3.2,2.2,4.4c1.4,1.1,3.1,1.7,5.3,1.6c2.3-0.1,4.9-1,7.6-2.8C491.9,80.1,495.4,77.2,499.7,73.3z M493.6,40.3
		c-1.2,0-2.4-0.4-3.6-1.3c-1.1-0.9-1.7-2.1-1.8-3.5c-0.1-2.2,0.9-4.6,2.9-7.4c2-2.7,4.1-4.1,6.3-4.2c1.5,0,2.7,0.4,3.8,1.3
		c1,0.9,1.6,2.2,1.6,3.9c0.1,2.1-0.9,4.5-2.8,7.2C498.1,38.9,495.9,40.2,493.6,40.3z"/>
	<path d="M548.7,58.2c-8.4,10-12.5,16.9-12.4,20.7c0.1,2.1,1,3.2,2.7,3.1c1.4,0,3.3-0.9,5.5-2.4c2.3-1.6,5.8-4.4,10.5-8.4l0.2,5.1
		c-6.8,7.2-12,12.3-15.7,15.5c-3.7,3.2-6.7,4.8-9.1,4.9c-4.1,0.1-6.2-2.5-6.4-7.8c-0.1-1.6,0.1-3.2,0.6-4.7c0.4-1.5,1.1-3.2,1.9-4.9
		c0.8-1.7,2.1-4.1,3.7-7.3c1.7-3.2,3.6-6.7,5.8-10.7c-2.8,1.5-6.2,4.5-10.3,8.9c-2.7,2.8-5,5.4-6.8,7.8c-1.9,2.5-3.8,5.2-5.9,8.2
		c-2.1,3-3.6,5.1-4.6,6.1c-1,1-2,1.6-3,1.6c-1.6,0.1-3.1-1.6-4.5-4.8c-1.4-3.3-2.2-7.1-2.4-11.5c-0.1-2.7,0.1-4.9,0.7-6.4
		c0.6-1.6,1.7-3.8,3.5-6.7c3.2-5.4,6.1-9.3,8.5-11.8c2.4-2.5,4.7-3.8,7-3.9c1.6-0.1,2.9,0.2,3.8,0.7c1,0.5,1.5,1.3,1.5,2.5
		c0,0.5-0.1,1-0.4,1.6c-0.3,0.6-0.6,1.1-1,1.5s-1.1,1.4-2.3,2.7c-7.5,8.9-11.3,14.7-11.2,17.2c0,1.4,0.5,2.1,1.5,2.1
		c0.6,0,1.7-1,3.4-3c1.6-2,3.8-4.5,6.4-7.7c2.6-3.2,5.7-6.5,9.3-10c3.6-3.5,7.7-6.9,12.3-10.1c2.6-1.9,4.7-2.9,6.4-3
		c0.8,0,1.6,1,2.4,3.2c0.8,2.2,1.3,4.3,1.4,6.6C551.7,54.3,550.7,56,548.7,58.2z"/>
	<path d="M613.8,74.5l-24,21.1c-6.5,12.2-12.5,21.4-18,27.5c-5.5,6.1-9.6,9.2-12.4,9.3c-1.5,0-2.3-0.8-2.3-2.7
		c-0.1-3.6,1.5-8.2,5-13.8c1.4-2.2,2.9-4.4,4.7-6.5c1.8-2.1,3.5-4,5.1-5.6c1.6-1.6,3.7-3.5,6.4-5.9c2.6-2.3,4.5-3.9,5.4-4.8
		c4.6-10.3,7.9-18.1,9.9-23.5c-4.5,5.1-8.4,9.3-11.8,12.6c-3.4,3.3-6.5,5.8-9.3,7.6c-2.8,1.8-5.4,2.7-7.7,2.8
		c-2.5,0.1-4.9-1.9-7.2-5.8c-2.3-4-3.5-8.1-3.6-12.3c-0.1-2,0.3-4.1,1.2-6.3c0.8-2.2,2.2-4.6,4.1-7.1c1.9-2.5,4.3-5.2,7.2-7.9
		c2.9-2.7,6.4-5.3,10.4-8c7.5-5.1,13.4-7.6,17.7-7.8c3.2-0.1,4.8,1,4.9,3.3c0.1,3.2-3.2,6.5-10,9.8c-4.1,2-8.2,4.5-12.3,7.7
		c-4,3.2-7.3,6.5-9.7,9.9c-2.4,3.5-3.6,6.6-3.5,9.3c0,1.3,0.4,2.4,1.1,3.2c0.7,0.8,1.5,1.1,2.6,1.1c1.7-0.1,3.7-0.9,5.9-2.6
		c2.2-1.7,5.4-4.6,9.6-8.7c1.9-1.9,4.5-4.9,7.6-9.1c3.2-4.2,5.8-7.4,7.9-9.6c2.1-2.2,4-3.4,5.7-3.4c1,0,1.8,0.3,2.4,0.8
		c0.6,0.6,1,1.5,1,2.7c0.1,2.3-0.7,5.6-2.4,10c-1.7,4.4-4.7,11.6-9.1,21.6l17.5-13.7L613.8,74.5z"/>
</g>
<g class="st0">
	<path class="st1" d="M53.7,96.6l2.5,1.8c-0.6,1.4-1.2,2.6-1.7,3.7c-0.6,1.1-1.2,2.3-2,3.9c-0.8,1.5-1.4,2.6-1.8,3.4
		c-3.5,6.6-6.9,10-10.1,10.1c-1.4,0-2.6-0.5-3.6-1.5c-1-1.1-1.6-2.5-1.6-4.4c-0.1-2.7,0.7-6.4,2.5-11.1c1.8-4.7,4.5-10.5,8.3-17.5
		c3.8-6.9,8.5-14.8,14.3-23.6c5.8-8.8,12.3-18.1,19.5-27.9c-4.4-0.5-9.6-0.7-15.5-0.5c-6.9,0.2-14.5,1.2-22.9,3.1
		c-8.4,1.8-15.7,3.8-21.9,6c-6.2,2.2-9.3,3.8-9.2,4.7c0,0.3,0.1,0.6,0.4,0.7c0.3,0.1,0.7,0.2,1.2,0.3c0.6,0.1,1.3,0.1,2.2,0.2
		c5.8,0.6,8.7,1.4,8.8,2.4c0,0.5-1.2,0.8-3.8,0.8c-2.5,0.1-5.6,0.1-9.1,0.3c-2.8,0.1-4.9,0-6.1-0.1c-1.3-0.2-2.1-0.6-2.6-1.2
		c-0.4-0.6-0.7-1.5-0.7-2.8c0-0.8,0.2-2.7,0.6-5.5C1.8,36.5,3.1,32.2,5,29c1.8-3.2,4.8-5.9,8.7-8.1c4-2.1,9.5-3.9,16.5-5.3
		c11.8-2.4,21.6-3.8,29.4-4c5.7-0.2,10.3-0.1,13.6,0.3c3.3,0.4,5.8,1,7.4,1.8c1.6,0.8,2.6,1.7,3.1,2.5c0.4,0.9,1.1,2.3,1.8,4.4
		l2.5,6.8c0.2,0.4,0.3,0.8,0.4,1.1c0.1,0.3,0.2,0.6,0.3,0.8c0.1,0.3,0.1,0.6,0.1,0.8c0.1,1.9-0.3,3.7-1.1,5.2
		c-0.8,1.6-2.3,3.9-4.5,7.1c-2.2,3.1-3.8,5.6-4.8,7.4C66.2,70.9,58,86.5,53.7,96.6z"/>
	<path class="st1" d="M134.6,85.3l0.2,4.7c-4.2,4.5-7.8,8.3-10.8,11.2c-3.1,2.9-5.7,5.1-8,6.6c-2.3,1.5-4.3,2.3-5.9,2.3
		c-3.9,0.1-5.9-2.1-6-6.6c-0.1-3.7,0.9-7.9,3.2-12.8c2.2-4.9,5.5-10.7,9.8-17.4c-2.2,1.3-4.2,2.8-6.2,4.5c-1.9,1.7-3.6,3.4-5.1,5.2
		c-1.5,1.8-2.7,3.3-3.7,4.6c-3.1,3.7-6.1,7.5-8.9,11.4c-2.8,3.9-4.8,6.4-5.8,7.6c-1,1.2-2,1.8-2.9,1.8c-3.9,0.1-5.9-4.6-6.3-14.1
		c-0.1-3.1,0.3-6.6,1.1-10.4c0.8-3.8,3.2-8.8,7.1-15.2c8.2-13.2,15.3-24.1,21.2-32.5c5.9-8.4,10.8-14.8,14.7-19.2
		c3.9-4.4,6.6-6.5,8-6.5c1.7,0.1,3.1,0.4,4.2,0.9c1.1,0.5,1.6,1.1,1.7,1.8c0,1.2-0.7,3.3-2.4,6.2c-1.6,2.9-4.4,7.4-8.4,13.6
		c-4.3,6.5-7.3,11.1-9.1,13.8c-1.8,2.7-4.5,6.4-8.1,11.3c-3.6,4.9-6.9,9.3-9.8,13.1c-3,3.8-6.4,8-10.2,12.5l0.3,8.9
		c6.4-7.6,11.9-13.8,16.6-18.7c4.7-4.9,8.7-8.5,12-11.1c3.3-2.5,5.7-3.8,7.3-3.8c1.5,0,2.9,0.8,4.2,2.5c1.3,1.7,2,3.1,2.1,4.3
		c0,0.5-0.2,1.1-0.7,1.9c-3.4,4.4-6.1,8-8.2,10.9c-2,2.9-3.5,5.4-4.6,7.7c-1.1,2.2-1.6,4.2-1.5,5.7c0.1,2.3,1.2,3.5,3.5,3.4
		C121.5,95.4,126.7,92,134.6,85.3z"/>
	<path class="st1" d="M146.6,87.6l0.1,1.9c0.1,2.9,0.9,5.2,2.4,6.8c1.5,1.6,3.4,2.3,5.7,2.3c2.4-0.1,4.9-0.7,7.5-2
		c2.6-1.2,5.1-2.8,7.6-4.8c2.5-2,5.6-4.6,9.2-7.9l0.1,4.5c-5.4,6.9-10.4,12.2-15.2,16c-4.8,3.7-9.7,5.7-14.7,5.9
		c-4.4,0.1-7.9-1.4-10.6-4.8c-2.7-3.3-4.1-8-4.3-13.9c-0.2-5.2,0.9-9.9,3.2-14.3c2.3-4.3,6.1-8.9,11.4-13.8c3.7-3.3,7.3-5.9,11-7.6
		c3.7-1.8,6.9-2.7,9.9-2.8c2.3-0.1,4.2,0.4,5.6,1.4c1.4,1,2.1,2.6,2.2,4.7c0.1,3.1-1,6.3-3.2,9.4c-2.2,3.2-5.7,6.4-10.3,9.6
		C159.2,81.4,153.5,84.6,146.6,87.6z M147.2,82.8c4.4-1.9,8.1-4.2,11.2-6.8c3.1-2.7,5.3-5.2,6.8-7.6c1.4-2.4,2.1-4.1,2.1-5.2
		c0-1.1-0.6-1.7-1.6-1.7c-0.9,0-2.3,0.6-4.3,1.9c-2,1.2-3.9,2.8-5.9,4.7c-2,1.9-3.8,4.1-5.3,6.6C148.5,77.1,147.6,79.8,147.2,82.8z"
		/>
	<path class="st1" d="M317.1,9.1l0.2,5c0.1,2.1-0.3,3.4-1.1,4c-0.8,0.6-3.7,2.1-8.8,4.7c-5.1,2.5-10,5.5-14.6,8.9
		c1.7-2.7,3.3-4.8,4.8-6.1c1.5-1.3,3.5-3,6-5c-2.3-0.8-5.4-1.2-9.3-1c-6.1,0.2-12.7,1.6-19.7,4.3c-7,2.7-13,5.8-17.8,9.3
		c-4.9,3.5-7.3,6.4-7.2,8.7c0,1.2,0.8,2.1,2.4,2.9c1.5,0.7,4,1.2,7.3,1.5c3.4,0.3,7.5,0.5,12.5,0.4c5,0,11.2-0.1,18.5-0.4
		c5.3-0.2,8.8-0.1,10.3,0.3c1.5,0.3,2.3,1.2,2.4,2.7c0.1,1.8-0.8,4-2.5,6.4c-1.7,2.4-4.1,3.9-7,4.4c-4.6,0.9-8.2,1.6-10.9,2.3
		c-2.7,0.6-5.9,1.6-9.6,3c-3.7,1.4-7.8,3.3-12.3,5.8c-6.7,3.8-11.8,7.6-15.5,11.4c-3.7,3.8-5.5,7.1-5.4,9.9c0.1,2.4,1.5,4.3,4.3,5.5
		c2.8,1.3,6.7,1.8,11.8,1.7c17.6-0.6,35.2-9.1,52.9-25.4c0.3,4.8-0.1,9.1-1.2,12.9c-1,3.7-3.3,7.3-6.7,10.8
		c-2.9,2.9-7.1,5.8-12.8,8.5c-5.6,2.8-11.8,5-18.5,6.8c-6.7,1.8-13,2.7-19,2.9c-6.9,0.2-12.6-1.2-17.2-4.4c-4.6-3.1-7-7.4-7.2-12.9
		c-0.1-4,0.8-7.9,2.9-11.9c2-4,5.3-7.8,9.6-11.6c4.4-3.7,10-7.2,16.8-10.3c6.8-3.1,14.7-5.7,23.6-7.7c1.3-0.3,1.9-0.7,1.9-1.3
		c0-0.6-0.8-0.9-2.3-1c-1.5-0.1-4.3-0.1-8.3,0c-4,0.1-7.6,0-10.7-0.2c-3.1-0.2-6.3-0.7-9.8-1.6c-3.5-1-6.3-2.8-8.3-5.4
		c-2-2.7-3-5.6-3.2-9c-0.1-4.3,1.3-8.6,4.2-13c2.9-4.4,7.1-8.4,12.6-12.1c5.5-3.6,12.2-6.7,20-9c7.9-2.4,16.5-3.7,26-4
		c5.4-0.2,9.3,0,11.4,0.6c2.2,0.5,3.4,1.3,3.8,2.3C316.8,4.4,317,6.3,317.1,9.1z"/>
	<path class="st1" d="M324.9,79.2l-1.1,6.3c-0.2,0.8-0.2,1.7-0.2,2.7c0.1,2.7,1.2,4,3.5,3.9c2.1-0.1,7.2-4.4,15.1-13
		c-0.1-3.2,1-7,3.2-11.3c2.2-4.3,4.7-8.1,7.4-11.3c2.7-3.3,4.8-4.9,6.2-5c2.2-0.1,3.3,1.3,3.4,4.2c0.1,1.7-0.3,3.9-1.1,6.4
		c-0.8,2.5-1.9,5.3-3.4,8.2c-1.5,2.9-3.4,6-5.7,9.1c1.3,2.2,2.6,3.3,3.9,3.2c1.1,0,2.3-0.5,3.6-1.3c1.3-0.8,2.9-2,4.8-3.7l0.2,5
		c-2.7,2.3-4.8,3.8-6.4,4.7c-1.6,0.8-3.6,1.3-6.2,1.4c-1,0-2.8-0.6-5.4-1.8c-4.9,5.5-8.8,9.6-11.9,12.4c-3.1,2.8-5.6,4.2-7.6,4.2
		c-3.4,0.1-6.4-1.8-8.9-5.8c-2.5-4-3.9-8.5-4-13.4c-0.2-6.6,3.2-14.6,10.4-24c2.1-2.8,3.9-4.8,5.2-5.9c1.3-1.1,2.9-1.6,4.6-1.7
		c1.5,0,2.9,0.2,4.3,0.7c1.4,0.5,2,1.1,2.1,1.9c0.1,2.5-1.5,6.2-4.6,11C332.9,71.3,329.2,75.6,324.9,79.2z"/>
	<path class="st1" d="M376.3,80.1l0.1,1.9c0.1,2.9,0.9,5.2,2.4,6.8c1.5,1.6,3.4,2.3,5.7,2.3c2.4-0.1,4.9-0.7,7.5-2
		c2.6-1.2,5.1-2.8,7.6-4.8c2.5-2,5.6-4.6,9.2-7.9l0.1,4.5c-5.4,6.9-10.4,12.2-15.2,16c-4.8,3.7-9.7,5.7-14.7,5.9
		c-4.4,0.1-7.9-1.4-10.6-4.8c-2.7-3.3-4.1-8-4.3-13.9c-0.2-5.2,0.9-9.9,3.2-14.3c2.3-4.3,6.1-8.9,11.4-13.8c3.7-3.3,7.3-5.9,11-7.6
		c3.7-1.8,6.9-2.7,9.9-2.8c2.3-0.1,4.2,0.4,5.6,1.4c1.4,1,2.1,2.6,2.2,4.7c0.1,3.1-1,6.3-3.2,9.4c-2.2,3.2-5.7,6.4-10.3,9.6
		C389,73.9,383.2,77,376.3,80.1z M376.9,75.2c4.4-1.9,8.1-4.2,11.2-6.8c3.1-2.7,5.3-5.2,6.8-7.6c1.4-2.4,2.1-4.1,2.1-5.2
		c0-1.1-0.6-1.7-1.6-1.7c-0.9,0-2.3,0.6-4.3,1.9c-2,1.2-3.9,2.8-5.9,4.7c-2,1.9-3.8,4.1-5.3,6.6C378.3,69.5,377.3,72.3,376.9,75.2z"
		/>
	<path class="st1" d="M458.3,61.2c-8.4,10-12.5,16.9-12.4,20.7c0.1,2.1,1,3.2,2.7,3.1c1.4,0,3.3-0.9,5.5-2.4
		c2.3-1.6,5.8-4.4,10.5-8.4l0.2,5.1c-6.8,7.2-12,12.3-15.7,15.5c-3.7,3.2-6.7,4.8-9.1,4.9c-4.1,0.1-6.2-2.5-6.4-7.8
		c-0.1-1.6,0.1-3.1,0.6-4.7c0.4-1.5,1.1-3.2,1.9-4.9c0.8-1.7,2.1-4.1,3.7-7.3c1.7-3.2,3.6-6.7,5.8-10.7c-2.8,1.5-6.2,4.5-10.3,8.9
		c-2.7,2.8-5,5.4-6.8,7.8c-1.9,2.5-3.8,5.2-5.9,8.2c-2.1,3-3.6,5-4.6,6.1c-1,1-2,1.6-3,1.6c-1.6,0.1-3.1-1.6-4.5-4.8
		c-1.4-3.3-2.2-7.1-2.4-11.5c-0.1-2.7,0.1-4.9,0.7-6.4c0.6-1.6,1.7-3.8,3.5-6.7c3.2-5.4,6.1-9.3,8.5-11.8c2.4-2.5,4.7-3.8,7-3.9
		c1.6-0.1,2.9,0.2,3.8,0.7c1,0.5,1.5,1.3,1.5,2.5c0,0.5-0.1,1-0.4,1.6c-0.3,0.6-0.6,1.1-1,1.5c-0.4,0.5-1.1,1.3-2.3,2.7
		c-7.5,8.9-11.3,14.7-11.2,17.2c0,1.4,0.5,2.1,1.5,2.1c0.6,0,1.7-1,3.4-3c1.6-2,3.8-4.5,6.4-7.7c2.6-3.2,5.7-6.5,9.3-10
		c3.6-3.5,7.7-6.9,12.3-10.1c2.6-1.9,4.7-2.9,6.4-3c0.8,0,1.6,1,2.4,3.2c0.8,2.2,1.3,4.3,1.4,6.6C461.4,57.2,460.4,58.9,458.3,61.2z
		"/>
	<path class="st1" d="M499.7,73.3l0.2,5.4c-4.6,6.3-8.9,11.2-13,14.4c-4.1,3.3-7.5,5-10.5,5.1c-4.1,0.1-7.1-1.9-9.3-6.1
		c-2.1-4.2-3.3-8.8-3.4-13.9c-0.1-1.9,0.1-3.8,0.4-5.5c0.3-1.8,0.8-3.2,1.3-4.4c0.5-1.2,1.5-3,2.9-5.4c6.7-11.2,12.9-16.8,18.8-17
		c3-0.1,4.6,1,4.6,3.3c0.1,1.6-0.8,4.1-2.7,7.5c-1.8,3.4-3.5,5.9-5,7.4c-4.2,4.3-6.9,7.3-8.1,9c-1.3,1.7-1.9,3.6-1.8,5.6
		c0.1,1.8,0.8,3.2,2.2,4.4c1.4,1.1,3.1,1.7,5.3,1.6c2.3-0.1,4.9-1,7.6-2.8C491.9,80.1,495.4,77.2,499.7,73.3z M493.6,40.3
		c-1.2,0-2.4-0.4-3.6-1.3c-1.1-0.9-1.7-2.1-1.8-3.5c-0.1-2.2,0.9-4.6,2.9-7.4c2-2.7,4.1-4.1,6.3-4.2c1.5,0,2.7,0.4,3.8,1.3
		c1,0.9,1.6,2.2,1.6,3.9c0.1,2.1-0.9,4.5-2.8,7.2C498.1,38.9,495.9,40.2,493.6,40.3z"/>
	<path class="st1" d="M548.7,58.2c-8.4,10-12.5,16.9-12.4,20.7c0.1,2.1,1,3.2,2.7,3.1c1.4,0,3.3-0.9,5.5-2.4
		c2.3-1.6,5.8-4.4,10.5-8.4l0.2,5.1c-6.8,7.2-12,12.3-15.7,15.5c-3.7,3.2-6.7,4.8-9.1,4.9c-4.1,0.1-6.2-2.5-6.4-7.8
		c-0.1-1.6,0.1-3.2,0.6-4.7c0.4-1.5,1.1-3.2,1.9-4.9c0.8-1.7,2.1-4.1,3.7-7.3c1.7-3.2,3.6-6.7,5.8-10.7c-2.8,1.5-6.2,4.5-10.3,8.9
		c-2.7,2.8-5,5.4-6.8,7.8c-1.9,2.5-3.8,5.2-5.9,8.2c-2.1,3-3.6,5.1-4.6,6.1c-1,1-2,1.6-3,1.6c-1.6,0.1-3.1-1.6-4.5-4.8
		c-1.4-3.3-2.2-7.1-2.4-11.5c-0.1-2.7,0.1-4.9,0.7-6.4c0.6-1.6,1.7-3.8,3.5-6.7c3.2-5.4,6.1-9.3,8.5-11.8c2.4-2.5,4.7-3.8,7-3.9
		c1.6-0.1,2.9,0.2,3.8,0.7c1,0.5,1.5,1.3,1.5,2.5c0,0.5-0.1,1-0.4,1.6c-0.3,0.6-0.6,1.1-1,1.5s-1.1,1.4-2.3,2.7
		c-7.5,8.9-11.3,14.7-11.2,17.2c0,1.4,0.5,2.1,1.5,2.1c0.6,0,1.7-1,3.4-3c1.6-2,3.8-4.5,6.4-7.7c2.6-3.2,5.7-6.5,9.3-10
		c3.6-3.5,7.7-6.9,12.3-10.1c2.6-1.9,4.7-2.9,6.4-3c0.8,0,1.6,1,2.4,3.2c0.8,2.2,1.3,4.3,1.4,6.6C551.7,54.3,550.7,56,548.7,58.2z"
		/>
	<path class="st1" d="M613.8,74.5l-24,21.1c-6.5,12.2-12.5,21.4-18,27.5c-5.5,6.1-9.6,9.2-12.4,9.3c-1.5,0-2.3-0.8-2.3-2.7
		c-0.1-3.6,1.5-8.2,5-13.8c1.4-2.2,2.9-4.4,4.7-6.5c1.8-2.1,3.5-4,5.1-5.6c1.6-1.6,3.7-3.5,6.4-5.9c2.6-2.3,4.5-3.9,5.4-4.8
		c4.6-10.3,7.9-18.1,9.9-23.5c-4.5,5.1-8.4,9.3-11.8,12.6c-3.4,3.3-6.5,5.8-9.3,7.6c-2.8,1.8-5.4,2.7-7.7,2.8
		c-2.5,0.1-4.9-1.9-7.2-5.8c-2.3-4-3.5-8.1-3.6-12.3c-0.1-2,0.3-4.1,1.2-6.3c0.8-2.2,2.2-4.6,4.1-7.1c1.9-2.5,4.3-5.2,7.2-7.9
		c2.9-2.7,6.4-5.3,10.4-8c7.5-5.1,13.4-7.6,17.7-7.8c3.2-0.1,4.8,1,4.9,3.3c0.1,3.2-3.2,6.5-10,9.8c-4.1,2-8.2,4.5-12.3,7.7
		c-4,3.2-7.3,6.5-9.7,9.9c-2.4,3.5-3.6,6.6-3.5,9.3c0,1.3,0.4,2.4,1.1,3.2c0.7,0.8,1.5,1.1,2.6,1.1c1.7-0.1,3.7-0.9,5.9-2.6
		c2.2-1.7,5.4-4.6,9.6-8.7c1.9-1.9,4.5-4.9,7.6-9.1c3.2-4.2,5.8-7.4,7.9-9.6c2.1-2.2,4-3.4,5.7-3.4c1,0,1.8,0.3,2.4,0.8
		c0.6,0.6,1,1.5,1,2.7c0.1,2.3-0.7,5.6-2.4,10c-1.7,4.4-4.7,11.6-9.1,21.6l17.5-13.7L613.8,74.5z"/>
</g>
<g>
	<g class="st0">
		<path d="M208.3,376.5l12.8-19.9c26,12.5,51.2,18.7,75.7,18.8c16.3,0,31.2-2.5,44.7-7.6c13.5-5.1,24.1-12,31.9-20.9
			c7.8-8.8,11.7-18.4,11.8-28.8c0-10.3-3.5-19.4-10.5-27.4c-7.1-8-19.8-17.3-38.3-27.9c-18-10.4-28.9-16.9-32.9-19.3
			c-3.9-2.4-9-5.8-15.3-10.2c-11.2-8.6-16.8-18.6-16.8-30.2c0.1-20.9,15.8-41,47.3-60.2c8.8-5.4,18.9-10.3,30.2-14.7
			c11.3-4.4,22.5-7.7,33.4-9.9c10.9-2.2,21.2-3.3,30.7-3.3c14,0,25,2.3,33,6.9c8,4.6,12,10.9,12,19c0,10-4.9,20.7-14.7,32
			c-9.7,11.4-23,21.8-39.8,31.4l-18.5-9c11.4-6.6,21.1-13.3,28.9-19.9c7.9-6.6,14-13.1,18.3-19.4c4.3-6.3,6.5-12.1,6.5-17.3
			c0-3.6-1.1-6.7-3.4-9.2c-2.3-2.5-5.6-4.5-9.9-5.8c-4.3-1.3-9.7-2-16.2-2c-12,0-24.9,2-38.7,6c-13.8,4-26.8,9.3-39,16
			c-27.2,14.7-40.8,31.1-40.8,49.2c0,5.1,1.6,9.8,4.8,14.3c3.2,4.5,8.9,9.5,16.9,15.1c8.1,5.6,19.9,12.8,35.4,21.7
			c11.5,6.6,20.3,11.9,26.2,16.1c5.9,4.1,10.8,8.5,14.6,13c8.6,9.5,12.9,20.1,12.8,31.8c0,9.1-2.8,18.2-8.3,27.5
			c-5.5,9.3-13.3,18-23.3,26.1c-23.5,19-56,28.4-97.6,28.3C245.4,386.6,224,383.2,208.3,376.5z"/>
	</g>
	<g class="st0">
		<path d="M433.1,384.3l62.3-273.1l24.3-10.1L455,344.2c0.6-0.9,0.9-1.5,0.9-1.8l5.3-10.4c9.1-17.8,20.6-33.2,34.3-46.2
			c13-12.1,24.9-18.1,35.9-18.1c5.9,0,10.5,1.7,14.1,4.9c3.5,3.3,5.3,7.6,5.3,13.1c0,3.1-0.9,7.4-2.6,13l-2.3,8.4l-7.2,24.4
			l-2.1,7.8c-2.3,8-3.5,14.1-3.5,18.4c0,4.3,0.8,7.7,2.5,10.3c1.7,2.6,3.9,3.9,6.7,3.9c4.8,0,12.4-4.9,22.9-14.7l3.5,2.8l-2.1,2.2
			c-8.8,8.9-15.3,14.9-19.6,18c-4.2,3.1-8.1,4.7-11.5,4.7c-4.8,0-8.9-2.2-12.2-6.6c-3.4-4.4-5.1-9.5-5-15.4c0-3.6,1-9.9,3.1-19
			l8.9-42.3c1.4-6.3,2.1-10.9,2.1-14c0-2.8-0.8-4.9-2.5-6.4c-1.7-1.5-4-2.2-6.9-2.2c-5.7,0-12.3,2.9-19.7,8.6
			c-7.4,5.8-14.9,13.8-22.4,24c-7.5,10.2-14,21.2-19.6,32.8c-5.6,11.6-9.8,23.6-12.6,35.8L433.1,384.3z"/>
		<path d="M581.6,344.4c0-12,3.8-23.9,11.3-35.8c7.5-11.9,17.2-21.6,29.1-29c11.9-7.4,24-11.1,36.3-11.1c12.9,0,23.4,3.8,31.3,11.2
			c7.9,7.4,11.8,17,11.8,28.7c0,12.8-3.7,25.2-11.1,37.1c-7.4,12-17,21.8-29,29.4c-12,7.6-24,11.4-36.2,11.4
			c-13.1,0-23.6-3.9-31.6-11.6C585.5,367,581.5,356.9,581.6,344.4z M680.6,300.7c0-8-2.2-14.6-6.8-19.8c-4.5-5.2-10.3-7.8-17.4-7.8
			c-6.5,0-12.7,1.8-18.6,5.3c-5.9,3.6-11.4,8.8-16.3,15.7c-5.6,8-10.2,17.3-13.8,27.9c-3.7,10.6-5.5,20.1-5.5,28.4
			c0,9.9,2.2,17.5,6.6,22.8c4.5,5.3,10.8,8,19.2,8c13.4,0,25.2-8,35.4-24.1c5.3-8.2,9.4-17.5,12.6-27.7
			C679,319.2,680.6,309.6,680.6,300.7z"/>
		<path d="M726.6,274.5l20.8-8.1l0,3.6l0,1.6c0,9.5,0.3,18.3,0.8,26.4c0.6,8.1,1.7,19.7,3.4,34.8c2.1,17.6,3.7,28.3,4.8,32.2
			c1.1,3.9,2.9,5.8,5.5,5.8c3.4,0,8.9-4.7,16.7-14c7.7-9.4,15.3-20.7,22.7-34l-7-48l21-8.1l0.2,5c1.1,28.5,2.4,49,3.8,61.3
			c0.5,3.2,0.9,6.6,1.4,10.1c0.5,3.5,0.8,6.3,1,8.3c0.2,2,0.6,4.3,1,6.9s0.8,4.3,0.9,5.1c1.2,4.4,3.2,6.6,6,6.6
			c5.5,0,15.1-9.5,28.7-28.5c12.8-17.5,19.3-32.4,19.3-44.5c0-9.7-3.6-16.8-11-21.2l17.6-13.9c5.4,5.3,8.1,12.3,8,20.8
			c0,9.3-3.1,19.9-9.1,31.7c-6,11.8-15,25.1-26.9,39.7c-7.4,8.9-14.2,16.3-20.4,22.1c-6.8,6.6-12.4,10-16.7,9.9
			c-3.4,0-5.9-1.4-7.6-4.1c-1.7-2.7-3-7.4-3.9-13.9l-5-35.8c-6.8,11.8-14.6,22.9-23.4,33.1c-11.6,13.7-20.9,20.5-27.8,20.5
			c-3.2,0-5.6-1.2-7.2-3.7c-1.5-2.5-2.9-7-4.1-13.7L726.6,274.5z"/>
	</g>
	<g class="st0">
		<path class="st2" d="M208.3,376.5l12.8-19.9c26,12.5,51.2,18.7,75.7,18.8c16.3,0,31.2-2.5,44.7-7.6c13.5-5.1,24.1-12,31.9-20.9
			c7.8-8.8,11.7-18.4,11.8-28.8c0-10.3-3.5-19.4-10.5-27.4c-7.1-8-19.8-17.3-38.3-27.9c-18-10.4-28.9-16.9-32.9-19.3
			c-3.9-2.4-9-5.8-15.3-10.2c-11.2-8.6-16.8-18.6-16.8-30.2c0.1-20.9,15.8-41,47.3-60.2c8.8-5.4,18.9-10.3,30.2-14.7
			c11.3-4.4,22.5-7.7,33.4-9.9c10.9-2.2,21.2-3.3,30.7-3.3c14,0,25,2.3,33,6.9c8,4.6,12,10.9,12,19c0,10-4.9,20.7-14.7,32
			c-9.7,11.4-23,21.8-39.8,31.4l-18.5-9c11.4-6.6,21.1-13.3,28.9-19.9c7.9-6.6,14-13.1,18.3-19.4c4.3-6.3,6.5-12.1,6.5-17.3
			c0-3.6-1.1-6.7-3.4-9.2c-2.3-2.5-5.6-4.5-9.9-5.8c-4.3-1.3-9.7-2-16.2-2c-12,0-24.9,2-38.7,6c-13.8,4-26.8,9.3-39,16
			c-27.2,14.7-40.8,31.1-40.8,49.2c0,5.1,1.6,9.8,4.8,14.3c3.2,4.5,8.9,9.5,16.9,15.1c8.1,5.6,19.9,12.8,35.4,21.7
			c11.5,6.6,20.3,11.9,26.2,16.1c5.9,4.1,10.8,8.5,14.6,13c8.6,9.5,12.9,20.1,12.8,31.8c0,9.1-2.8,18.2-8.3,27.5
			c-5.5,9.3-13.3,18-23.3,26.1c-23.5,19-56,28.4-97.6,28.3C245.4,386.6,224,383.2,208.3,376.5z"/>
	</g>
	<g class="st0">
		<path class="st3" d="M208.3,376.5l12.8-19.9c26,12.5,51.2,18.7,75.7,18.8c16.3,0,31.2-2.5,44.7-7.6c13.5-5.1,24.1-12,31.9-20.9
			c7.8-8.8,11.7-18.4,11.8-28.8c0-10.3-3.5-19.4-10.5-27.4c-7.1-8-19.8-17.3-38.3-27.9c-18-10.4-28.9-16.9-32.9-19.3
			c-3.9-2.4-9-5.8-15.3-10.2c-11.2-8.6-16.8-18.6-16.8-30.2c0.1-20.9,15.8-41,47.3-60.2c8.8-5.4,18.9-10.3,30.2-14.7
			c11.3-4.4,22.5-7.7,33.4-9.9c10.9-2.2,21.2-3.3,30.7-3.3c14,0,25,2.3,33,6.9c8,4.6,12,10.9,12,19c0,10-4.9,20.7-14.7,32
			c-9.7,11.4-23,21.8-39.8,31.4l-18.5-9c11.4-6.6,21.1-13.3,28.9-19.9c7.9-6.6,14-13.1,18.3-19.4c4.3-6.3,6.5-12.1,6.5-17.3
			c0-3.6-1.1-6.7-3.4-9.2c-2.3-2.5-5.6-4.5-9.9-5.8c-4.3-1.3-9.7-2-16.2-2c-12,0-24.9,2-38.7,6c-13.8,4-26.8,9.3-39,16
			c-27.2,14.7-40.8,31.1-40.8,49.2c0,5.1,1.6,9.8,4.8,14.3c3.2,4.5,8.9,9.5,16.9,15.1c8.1,5.6,19.9,12.8,35.4,21.7
			c11.5,6.6,20.3,11.9,26.2,16.1c5.9,4.1,10.8,8.5,14.6,13c8.6,9.5,12.9,20.1,12.8,31.8c0,9.1-2.8,18.2-8.3,27.5
			c-5.5,9.3-13.3,18-23.3,26.1c-23.5,19-56,28.4-97.6,28.3C245.4,386.6,224,383.2,208.3,376.5z"/>
	</g>
	<g class="st0">
		<path class="st2" d="M433.1,384.3l62.3-273.1l24.3-10.1L455,344.2c0.6-0.9,0.9-1.5,0.9-1.8l5.3-10.4c9.1-17.8,20.6-33.2,34.3-46.2
			c13-12.1,24.9-18.1,35.9-18.1c5.9,0,10.5,1.7,14.1,4.9c3.5,3.3,5.3,7.6,5.3,13.1c0,3.1-0.9,7.4-2.6,13l-2.3,8.4l-7.2,24.4
			l-2.1,7.8c-2.3,8-3.5,14.1-3.5,18.4c0,4.3,0.8,7.7,2.5,10.3c1.7,2.6,3.9,3.9,6.7,3.9c4.8,0,12.4-4.9,22.9-14.7l3.5,2.8l-2.1,2.2
			c-8.8,8.9-15.3,14.9-19.6,18c-4.2,3.1-8.1,4.7-11.5,4.7c-4.8,0-8.9-2.2-12.2-6.6c-3.4-4.4-5.1-9.5-5-15.4c0-3.6,1-9.9,3.1-19
			l8.9-42.3c1.4-6.3,2.1-10.9,2.1-14c0-2.8-0.8-4.9-2.5-6.4c-1.7-1.5-4-2.2-6.9-2.2c-5.7,0-12.3,2.9-19.7,8.6
			c-7.4,5.8-14.9,13.8-22.4,24c-7.5,10.2-14,21.2-19.6,32.8c-5.6,11.6-9.8,23.6-12.6,35.8L433.1,384.3z"/>
		<path class="st2" d="M581.6,344.4c0-12,3.8-23.9,11.3-35.8c7.5-11.9,17.2-21.6,29.1-29c11.9-7.4,24-11.1,36.3-11.1
			c12.9,0,23.4,3.8,31.3,11.2c7.9,7.4,11.8,17,11.8,28.7c0,12.8-3.7,25.2-11.1,37.1c-7.4,12-17,21.8-29,29.4
			c-12,7.6-24,11.4-36.2,11.4c-13.1,0-23.6-3.9-31.6-11.6C585.5,367,581.5,356.9,581.6,344.4z M680.6,300.7c0-8-2.2-14.6-6.8-19.8
			c-4.5-5.2-10.3-7.8-17.4-7.8c-6.5,0-12.7,1.8-18.6,5.3c-5.9,3.6-11.4,8.8-16.3,15.7c-5.6,8-10.2,17.3-13.8,27.9
			c-3.7,10.6-5.5,20.1-5.5,28.4c0,9.9,2.2,17.5,6.6,22.8c4.5,5.3,10.8,8,19.2,8c13.4,0,25.2-8,35.4-24.1c5.3-8.2,9.4-17.5,12.6-27.7
			C679,319.2,680.6,309.6,680.6,300.7z"/>
		<path class="st2" d="M726.6,274.5l20.8-8.1l0,3.6l0,1.6c0,9.5,0.3,18.3,0.8,26.4c0.6,8.1,1.7,19.7,3.4,34.8
			c2.1,17.6,3.7,28.3,4.8,32.2c1.1,3.9,2.9,5.8,5.5,5.8c3.4,0,8.9-4.7,16.7-14c7.7-9.4,15.3-20.7,22.7-34l-7-48l21-8.1l0.2,5
			c1.1,28.5,2.4,49,3.8,61.3c0.5,3.2,0.9,6.6,1.4,10.1c0.5,3.5,0.8,6.3,1,8.3c0.2,2,0.6,4.3,1,6.9s0.8,4.3,0.9,5.1
			c1.2,4.4,3.2,6.6,6,6.6c5.5,0,15.1-9.5,28.7-28.5c12.8-17.5,19.3-32.4,19.3-44.5c0-9.7-3.6-16.8-11-21.2l17.6-13.9
			c5.4,5.3,8.1,12.3,8,20.8c0,9.3-3.1,19.9-9.1,31.7c-6,11.8-15,25.1-26.9,39.7c-7.4,8.9-14.2,16.3-20.4,22.1
			c-6.8,6.6-12.4,10-16.7,9.9c-3.4,0-5.9-1.4-7.6-4.1c-1.7-2.7-3-7.4-3.9-13.9l-5-35.8c-6.8,11.8-14.6,22.9-23.4,33.1
			c-11.6,13.7-20.9,20.5-27.8,20.5c-3.2,0-5.6-1.2-7.2-3.7c-1.5-2.5-2.9-7-4.1-13.7L726.6,274.5z"/>
	</g>
	<g class="st0">
		<path class="st3" d="M433.1,384.3l62.3-273.1l24.3-10.1L455,344.2c0.6-0.9,0.9-1.5,0.9-1.8l5.3-10.4c9.1-17.8,20.6-33.2,34.3-46.2
			c13-12.1,24.9-18.1,35.9-18.1c5.9,0,10.5,1.7,14.1,4.9c3.5,3.3,5.3,7.6,5.3,13.1c0,3.1-0.9,7.4-2.6,13l-2.3,8.4l-7.2,24.4
			l-2.1,7.8c-2.3,8-3.5,14.1-3.5,18.4c0,4.3,0.8,7.7,2.5,10.3c1.7,2.6,3.9,3.9,6.7,3.9c4.8,0,12.4-4.9,22.9-14.7l3.5,2.8l-2.1,2.2
			c-8.8,8.9-15.3,14.9-19.6,18c-4.2,3.1-8.1,4.7-11.5,4.7c-4.8,0-8.9-2.2-12.2-6.6c-3.4-4.4-5.1-9.5-5-15.4c0-3.6,1-9.9,3.1-19
			l8.9-42.3c1.4-6.3,2.1-10.9,2.1-14c0-2.8-0.8-4.9-2.5-6.4c-1.7-1.5-4-2.2-6.9-2.2c-5.7,0-12.3,2.9-19.7,8.6
			c-7.4,5.8-14.9,13.8-22.4,24c-7.5,10.2-14,21.2-19.6,32.8c-5.6,11.6-9.8,23.6-12.6,35.8L433.1,384.3z"/>
		<path class="st3" d="M581.6,344.4c0-12,3.8-23.9,11.3-35.8c7.5-11.9,17.2-21.6,29.1-29c11.9-7.4,24-11.1,36.3-11.1
			c12.9,0,23.4,3.8,31.3,11.2c7.9,7.4,11.8,17,11.8,28.7c0,12.8-3.7,25.2-11.1,37.1c-7.4,12-17,21.8-29,29.4
			c-12,7.6-24,11.4-36.2,11.4c-13.1,0-23.6-3.9-31.6-11.6C585.5,367,581.5,356.9,581.6,344.4z M680.6,300.7c0-8-2.2-14.6-6.8-19.8
			c-4.5-5.2-10.3-7.8-17.4-7.8c-6.5,0-12.7,1.8-18.6,5.3c-5.9,3.6-11.4,8.8-16.3,15.7c-5.6,8-10.2,17.3-13.8,27.9
			c-3.7,10.6-5.5,20.1-5.5,28.4c0,9.9,2.2,17.5,6.6,22.8c4.5,5.3,10.8,8,19.2,8c13.4,0,25.2-8,35.4-24.1c5.3-8.2,9.4-17.5,12.6-27.7
			C679,319.2,680.6,309.6,680.6,300.7z"/>
		<path class="st3" d="M726.6,274.5l20.8-8.1l0,3.6l0,1.6c0,9.5,0.3,18.3,0.8,26.4c0.6,8.1,1.7,19.7,3.4,34.8
			c2.1,17.6,3.7,28.3,4.8,32.2c1.1,3.9,2.9,5.8,5.5,5.8c3.4,0,8.9-4.7,16.7-14c7.7-9.4,15.3-20.7,22.7-34l-7-48l21-8.1l0.2,5
			c1.1,28.5,2.4,49,3.8,61.3c0.5,3.2,0.9,6.6,1.4,10.1c0.5,3.5,0.8,6.3,1,8.3c0.2,2,0.6,4.3,1,6.9s0.8,4.3,0.9,5.1
			c1.2,4.4,3.2,6.6,6,6.6c5.5,0,15.1-9.5,28.7-28.5c12.8-17.5,19.3-32.4,19.3-44.5c0-9.7-3.6-16.8-11-21.2l17.6-13.9
			c5.4,5.3,8.1,12.3,8,20.8c0,9.3-3.1,19.9-9.1,31.7c-6,11.8-15,25.1-26.9,39.7c-7.4,8.9-14.2,16.3-20.4,22.1
			c-6.8,6.6-12.4,10-16.7,9.9c-3.4,0-5.9-1.4-7.6-4.1c-1.7-2.7-3-7.4-3.9-13.9l-5-35.8c-6.8,11.8-14.6,22.9-23.4,33.1
			c-11.6,13.7-20.9,20.5-27.8,20.5c-3.2,0-5.6-1.2-7.2-3.7c-1.5-2.5-2.9-7-4.1-13.7L726.6,274.5z"/>
	</g>
	<g class="st0">
		<path class="st4" d="M208.3,376.5l12.8-19.9c26,12.5,51.2,18.7,75.7,18.8c16.3,0,31.2-2.5,44.7-7.6c13.5-5.1,24.1-12,31.9-20.9
			c7.8-8.8,11.7-18.4,11.8-28.8c0-10.3-3.5-19.4-10.5-27.4c-7.1-8-19.8-17.3-38.3-27.9c-18-10.4-28.9-16.9-32.9-19.3
			c-3.9-2.4-9-5.8-15.3-10.2c-11.2-8.6-16.8-18.6-16.8-30.2c0.1-20.9,15.8-41,47.3-60.2c8.8-5.4,18.9-10.3,30.2-14.7
			c11.3-4.4,22.5-7.7,33.4-9.9c10.9-2.2,21.2-3.3,30.7-3.3c14,0,25,2.3,33,6.9c8,4.6,12,10.9,12,19c0,10-4.9,20.7-14.7,32
			c-9.7,11.4-23,21.8-39.8,31.4l-18.5-9c11.4-6.6,21.1-13.3,28.9-19.9c7.9-6.6,14-13.1,18.3-19.4c4.3-6.3,6.5-12.1,6.5-17.3
			c0-3.6-1.1-6.7-3.4-9.2c-2.3-2.5-5.6-4.5-9.9-5.8c-4.3-1.3-9.7-2-16.2-2c-12,0-24.9,2-38.7,6c-13.8,4-26.8,9.3-39,16
			c-27.2,14.7-40.8,31.1-40.8,49.2c0,5.1,1.6,9.8,4.8,14.3c3.2,4.5,8.9,9.5,16.9,15.1c8.1,5.6,19.9,12.8,35.4,21.7
			c11.5,6.6,20.3,11.9,26.2,16.1c5.9,4.1,10.8,8.5,14.6,13c8.6,9.5,12.9,20.1,12.8,31.8c0,9.1-2.8,18.2-8.3,27.5
			c-5.5,9.3-13.3,18-23.3,26.1c-23.5,19-56,28.4-97.6,28.3C245.4,386.6,224,383.2,208.3,376.5z"/>
	</g>
	<g class="st0">
		<path class="st4" d="M433.1,384.3l62.3-273.1l24.3-10.1L455,344.2c0.6-0.9,0.9-1.5,0.9-1.8l5.3-10.4c9.1-17.8,20.6-33.2,34.3-46.2
			c13-12.1,24.9-18.1,35.9-18.1c5.9,0,10.5,1.7,14.1,4.9c3.5,3.3,5.3,7.6,5.3,13.1c0,3.1-0.9,7.4-2.6,13l-2.3,8.4l-7.2,24.4
			l-2.1,7.8c-2.3,8-3.5,14.1-3.5,18.4c0,4.3,0.8,7.7,2.5,10.3c1.7,2.6,3.9,3.9,6.7,3.9c4.8,0,12.4-4.9,22.9-14.7l3.5,2.8l-2.1,2.2
			c-8.8,8.9-15.3,14.9-19.6,18c-4.2,3.1-8.1,4.7-11.5,4.7c-4.8,0-8.9-2.2-12.2-6.6c-3.4-4.4-5.1-9.5-5-15.4c0-3.6,1-9.9,3.1-19
			l8.9-42.3c1.4-6.3,2.1-10.9,2.1-14c0-2.8-0.8-4.9-2.5-6.4c-1.7-1.5-4-2.2-6.9-2.2c-5.7,0-12.3,2.9-19.7,8.6
			c-7.4,5.8-14.9,13.8-22.4,24c-7.5,10.2-14,21.2-19.6,32.8c-5.6,11.6-9.8,23.6-12.6,35.8L433.1,384.3z"/>
		<path class="st4" d="M581.6,344.4c0-12,3.8-23.9,11.3-35.8c7.5-11.9,17.2-21.6,29.1-29c11.9-7.4,24-11.1,36.3-11.1
			c12.9,0,23.4,3.8,31.3,11.2c7.9,7.4,11.8,17,11.8,28.7c0,12.8-3.7,25.2-11.1,37.1c-7.4,12-17,21.8-29,29.4
			c-12,7.6-24,11.4-36.2,11.4c-13.1,0-23.6-3.9-31.6-11.6C585.5,367,581.5,356.9,581.6,344.4z M680.6,300.7c0-8-2.2-14.6-6.8-19.8
			c-4.5-5.2-10.3-7.8-17.4-7.8c-6.5,0-12.7,1.8-18.6,5.3c-5.9,3.6-11.4,8.8-16.3,15.7c-5.6,8-10.2,17.3-13.8,27.9
			c-3.7,10.6-5.5,20.1-5.5,28.4c0,9.9,2.2,17.5,6.6,22.8c4.5,5.3,10.8,8,19.2,8c13.4,0,25.2-8,35.4-24.1c5.3-8.2,9.4-17.5,12.6-27.7
			C679,319.2,680.6,309.6,680.6,300.7z"/>
		<path class="st4" d="M726.6,274.5l20.8-8.1l0,3.6l0,1.6c0,9.5,0.3,18.3,0.8,26.4c0.6,8.1,1.7,19.7,3.4,34.8
			c2.1,17.6,3.7,28.3,4.8,32.2c1.1,3.9,2.9,5.8,5.5,5.8c3.4,0,8.9-4.7,16.7-14c7.7-9.4,15.3-20.7,22.7-34l-7-48l21-8.1l0.2,5
			c1.1,28.5,2.4,49,3.8,61.3c0.5,3.2,0.9,6.6,1.4,10.1c0.5,3.5,0.8,6.3,1,8.3c0.2,2,0.6,4.3,1,6.9s0.8,4.3,0.9,5.1
			c1.2,4.4,3.2,6.6,6,6.6c5.5,0,15.1-9.5,28.7-28.5c12.8-17.5,19.3-32.4,19.3-44.5c0-9.7-3.6-16.8-11-21.2l17.6-13.9
			c5.4,5.3,8.1,12.3,8,20.8c0,9.3-3.1,19.9-9.1,31.7c-6,11.8-15,25.1-26.9,39.7c-7.4,8.9-14.2,16.3-20.4,22.1
			c-6.8,6.6-12.4,10-16.7,9.9c-3.4,0-5.9-1.4-7.6-4.1c-1.7-2.7-3-7.4-3.9-13.9l-5-35.8c-6.8,11.8-14.6,22.9-23.4,33.1
			c-11.6,13.7-20.9,20.5-27.8,20.5c-3.2,0-5.6-1.2-7.2-3.7c-1.5-2.5-2.9-7-4.1-13.7L726.6,274.5z"/>
	</g>
</g>
</svg>
