<?xml version="1.0" encoding="utf-8"?>
<!-- Generator: Adobe Illustrator 23.0.2, SVG Export Plug-In . SVG Version: 6.00 Build 0)  -->
<svg version="1.1" id="Layer_1" xmlns="http://www.w3.org/2000/svg" xmlns:xlink="http://www.w3.org/1999/xlink" x="0px" y="0px"
	 viewBox="0 0 898.5 395.3" style="enable-background:new 0 0 898.5 395.3;" xml:space="preserve">
<style type="text/css">
	.st0{fill:none;}
	.st1{stroke:#DED282;stroke-miterlimit:10;}
	.st2{font-family:'BrushScriptMT';}
	.st3{font-size:152.0922px;}
	.st4{fill:url(#SVGID_1_);}
	.st5{font-family:'SavoyeLetPlain';}
	.st6{font-size:409.1658px;}
	.st7{letter-spacing:0.9;}
	.st8{fill:url(#SVGID_2_);}
	.st9{fill:#DED282;stroke:#000000;stroke-width:3;stroke-miterlimit:10;}
	.st10{fill:none;stroke:#E59E03;stroke-width:2;stroke-miterlimit:10;}
</style>
<pattern  x="-637.5" y="-370.1" width="94.8" height="89.3" patternUnits="userSpaceOnUse" id="Twinkle" viewBox="0 -89.3 94.8 89.3" style="overflow:visible;">
	<g>
		<rect x="0" y="-89.3" class="st0" width="94.8" height="89.3"/>
		
			<image style="overflow:visible;" width="395" height="372" xlink:href="7385989CA559FBAC.jpg"  transform="matrix(0.24 0 0 0.24 0 -89.28)">
		</image>
	</g>
</pattern>
<text transform="matrix(0.9995 -3.293214e-02 3.293214e-02 0.9995 -6.3102 116.3986)" class="st1 st2 st3">The Evening </text>
<g>
	<text transform="matrix(1.1565 3.376863e-03 -2.920000e-03 1 214.6478 384.6702)">	<pattern  id="SVGID_1_" xlink:href="#Twinkle" patternTransform="matrix(1.1724 0 0 1.1724 998.7973 1192.1389)">
	</pattern>
<tspan x="0" y="0" class="st4 st5 st6 st7">S</tspan>	<pattern  id="SVGID_2_" xlink:href="#Twinkle" patternTransform="matrix(1.1724 0 0 1.1724 998.7973 1192.1389)">
	</pattern>
<tspan x="195.2" y="0" class="st8 st5 st6">how</tspan></text>
	<text transform="matrix(1.1565 3.376863e-03 -2.920000e-03 1 214.6478 384.6702)"><tspan x="0" y="0" class="st9 st5 st6 st7">S</tspan><tspan x="195.2" y="0" class="st9 st5 st6">how</tspan></text>
	<text transform="matrix(1.1565 3.376863e-03 -2.920000e-03 1 214.6478 384.6702)"><tspan x="0" y="0" class="st10 st5 st6 st7">S</tspan><tspan x="195.2" y="0" class="st10 st5 st6">how</tspan></text>
</g>
</svg>
