<?xml version="1.0" encoding="utf-8"?>
<!-- Generator: Adobe Illustrator 23.0.1, SVG Export Plug-In . SVG Version: 6.00 Build 0)  -->
<svg version="1.1" id="trumpet" xmlns="http://www.w3.org/2000/svg" xmlns:xlink="http://www.w3.org/1999/xlink" x="0px" y="0px"
	 viewBox="0 0 68.2 68.7" style="enable-background:new 0 0 68.2 68.7;" xml:space="preserve">
<style type="text/css">
	.st0{fill:#6A8A82;}
	.st1{fill:#661642;}
</style>
<path id="upper_x5F_part" class="st0" d="M55.2,15.8c0,0,5.8-3.9,10.9-2.4c9.3,2.8-16-23.7-10.4-8.9c0.9,2.5-3.9,8.6-4.3,9
	S10.2,54.6,10.2,54.6s-0.5,2.1,0,2.6c0.5,0.5-6.7,7.6-6.7,7.6L0,65.6c0,0,0.9,2.5,2.2,3c1.3,0.5,1.6-2,1.6-2l5.7-5.9L55.2,15.8z"/>
<path id="lower_x5F_part" class="st0" d="M9.4,60.8c0,0,4.5,9.2,10.2,4.9s34.2-34.2,34.2-34.2s7.3-4.6-3.3-11l-1.7,1.5
	c0,0,6.1,3.9,4.2,6.4S18.9,62.9,18.9,62.9S14,67.5,11.4,59L9.4,60.8z"/>
<polygon id="buttons" class="st1" points="41.4,51 43.4,49 29.4,35.1 28.5,36.1 26.3,33.9 25,35.2 27.3,37.4 26,38.8 23.7,36.5 
	22.2,38 24.5,40.3 23.2,41.6 20.9,39.3 19.5,40.7 21.8,43 20.4,44.4 34.2,58.2 "/>
</svg>
